<svg width="172" height="38" viewBox="0 0 172 38" fill="none" xmlns="http://www.w3.org/2000/svg">
<path d="M68.4846 3.68036C48.1308 30.2095 41.0033 33.8506 31.5817 33.7385C22.4326 33.6255 15.7797 27.1422 15.6668 18.2756C15.5538 9.0814 22.2519 2.25903 31.4348 2.25903C35.2262 2.25903 38.2697 3.42239 40.6051 5.28109L36.7706 11.1894C35.5177 10.1841 33.4377 9.43154 31.3675 9.43154C26.6235 9.44286 22.9864 12.9895 22.9864 18.0272C22.9864 23.0537 26.7365 26.4195 31.5821 26.4195C36.202 26.4195 38.9354 23.4151 42.1091 18.5469L52.1393 3.15145H68.2237C68.5648 3.15124 68.6771 3.41107 68.4846 3.68036ZM8.15911 12.4507C8.61458 8.67099 10.3531 5.35289 12.2847 3.15124L2.76774 3.15186C2.42871 3.15186 2.28018 3.4265 2.46492 3.71019L8.15911 12.4507Z" fill="#FFDD00"/>
<path d="M9.5445 18.4225L0.598653 5.0151C0.135571 4.32593 0 3.8968 0 3.20783C0 1.89759 0.994051 0.892424 2.49624 0.892424H17.451C12.7748 4.57445 9.27336 11.0354 9.5445 18.4225ZM2.76738 3.15188C2.42835 3.15188 2.27982 3.42652 2.46456 3.71021L8.15875 12.4507C8.61422 8.671 10.3528 5.3529 12.2843 3.15126L2.76738 3.15188ZM68.4939 0.892424C69.9963 0.892424 70.9901 1.89779 70.9901 3.20783C70.9901 3.8968 70.798 4.37119 70.1656 5.19593C49.8229 31.6379 42.176 36.1107 31.5813 35.998C21.1896 35.885 13.5203 28.3963 13.4074 18.2871C13.2944 7.88411 20.9864 0 31.4007 0C36.639 0 40.824 2.03048 43.5832 4.94146L37.215 14.5573C35.9021 13.051 34.0298 11.6906 31.4577 11.6906C27.8659 11.6906 25.2452 14.2321 25.2452 18.0384C25.2452 21.8109 28.0126 24.1605 31.5819 24.1605C34.9366 24.1605 37.1391 22.0821 40.3809 17.1009L50.9305 0.892424H68.4939ZM68.2234 3.15126H52.1389L42.1087 18.5467C38.9348 23.4149 36.2014 26.4193 31.5817 26.4193C26.7361 26.4193 22.986 23.0535 22.986 18.0271C22.986 12.9893 26.6232 9.44267 31.3671 9.43135C33.4373 9.43135 35.5174 10.1841 36.7702 11.1893L40.6047 5.2809C38.2693 3.4222 35.2261 2.25883 31.4344 2.25883C22.2514 2.25883 15.5534 9.08121 15.6664 18.2754C15.7793 27.142 22.4322 33.6256 31.5813 33.7385C41.0028 33.8506 48.1302 30.2095 68.4842 3.68038C68.6768 3.41109 68.5645 3.15126 68.2234 3.15126Z" fill="black"/>
<path d="M84.486 15.136L85.788 11.468H85.816L87.076 15.136H84.486ZM84.696 9.004L80.916 19H83.128L83.912 16.774H87.65L88.406 19H90.688L86.95 9.004H84.696ZM98.13 19V11.762H96.142V15.556C96.142 16.2933 96.0207 16.8253 95.778 17.152C95.5353 17.4693 95.1433 17.628 94.602 17.628C94.126 17.628 93.7947 17.4833 93.608 17.194C93.4213 16.8953 93.328 16.4473 93.328 15.85V11.762H91.34V16.214C91.34 16.662 91.3773 17.0727 91.452 17.446C91.536 17.81 91.676 18.1227 91.872 18.384C92.068 18.636 92.334 18.832 92.67 18.972C93.0153 19.112 93.454 19.182 93.986 19.182C94.406 19.182 94.8167 19.0887 95.218 18.902C95.6193 18.7153 95.946 18.412 96.198 17.992H96.24V19H98.13ZM101.179 16.648H99.2888C99.3075 17.1333 99.4148 17.5393 99.6108 17.866C99.8161 18.1833 100.073 18.44 100.381 18.636C100.698 18.832 101.057 18.972 101.459 19.056C101.86 19.14 102.271 19.182 102.691 19.182C103.101 19.182 103.503 19.14 103.895 19.056C104.296 18.9813 104.651 18.846 104.959 18.65C105.267 18.454 105.514 18.1973 105.701 17.88C105.897 17.5533 105.995 17.152 105.995 16.676C105.995 16.34 105.929 16.06 105.799 15.836C105.668 15.6027 105.495 15.4113 105.281 15.262C105.066 15.1033 104.819 14.9773 104.539 14.884C104.268 14.7907 103.988 14.7113 103.699 14.646C103.419 14.5807 103.143 14.52 102.873 14.464C102.602 14.408 102.359 14.3473 102.145 14.282C101.939 14.2073 101.771 14.114 101.641 14.002C101.51 13.89 101.445 13.7453 101.445 13.568C101.445 13.4187 101.482 13.302 101.557 13.218C101.631 13.1247 101.72 13.0547 101.823 13.008C101.935 12.9613 102.056 12.9333 102.187 12.924C102.317 12.9053 102.439 12.896 102.551 12.896C102.905 12.896 103.213 12.966 103.475 13.106C103.736 13.2367 103.881 13.4933 103.909 13.876H105.799C105.761 13.428 105.645 13.0593 105.449 12.77C105.262 12.4713 105.024 12.2333 104.735 12.056C104.445 11.8787 104.114 11.7527 103.741 11.678C103.377 11.6033 102.999 11.566 102.607 11.566C102.215 11.566 101.832 11.6033 101.459 11.678C101.085 11.7433 100.749 11.8647 100.451 12.042C100.152 12.21 99.9095 12.4433 99.7228 12.742C99.5455 13.0407 99.4568 13.4233 99.4568 13.89C99.4568 14.2073 99.5221 14.478 99.6528 14.702C99.7835 14.9167 99.9561 15.0987 100.171 15.248C100.385 15.388 100.628 15.5047 100.899 15.598C101.179 15.682 101.463 15.7567 101.753 15.822C102.462 15.9713 103.013 16.1207 103.405 16.27C103.806 16.4193 104.007 16.6433 104.007 16.942C104.007 17.1193 103.965 17.2687 103.881 17.39C103.797 17.502 103.689 17.5953 103.559 17.67C103.437 17.7353 103.297 17.7867 103.139 17.824C102.989 17.852 102.845 17.866 102.705 17.866C102.509 17.866 102.317 17.8427 102.131 17.796C101.953 17.7493 101.795 17.6793 101.655 17.586C101.515 17.4833 101.398 17.3573 101.305 17.208C101.221 17.0493 101.179 16.8627 101.179 16.648ZM109.678 11.762V9.592H107.69V11.762H106.486V13.092H107.69V17.362C107.69 17.726 107.751 18.02 107.872 18.244C107.994 18.468 108.157 18.6407 108.362 18.762C108.577 18.8833 108.82 18.9627 109.09 19C109.37 19.0467 109.664 19.07 109.972 19.07C110.168 19.07 110.369 19.0653 110.574 19.056C110.78 19.0467 110.966 19.028 111.134 19V17.46C111.041 17.4787 110.943 17.4927 110.84 17.502C110.738 17.5113 110.63 17.516 110.518 17.516C110.182 17.516 109.958 17.46 109.846 17.348C109.734 17.236 109.678 17.012 109.678 16.676V13.092H111.134V11.762H109.678ZM112.08 11.762V19H114.068V15.738C114.068 15.4113 114.101 15.108 114.166 14.828C114.232 14.548 114.339 14.3053 114.488 14.1C114.647 13.8853 114.852 13.7173 115.104 13.596C115.356 13.4747 115.664 13.414 116.028 13.414C116.15 13.414 116.276 13.4233 116.406 13.442C116.537 13.4513 116.649 13.4653 116.742 13.484V11.636C116.584 11.5893 116.439 11.566 116.308 11.566C116.056 11.566 115.814 11.6033 115.58 11.678C115.347 11.7527 115.128 11.86 114.922 12C114.717 12.1307 114.535 12.294 114.376 12.49C114.218 12.6767 114.092 12.882 113.998 13.106H113.97V11.762H112.08ZM119.566 10.642V9.004H117.578V10.642H119.566ZM117.578 11.762V19H119.566V11.762H117.578ZM121.047 13.988C121.075 13.5213 121.192 13.134 121.397 12.826C121.602 12.518 121.864 12.2707 122.181 12.084C122.498 11.8973 122.853 11.7667 123.245 11.692C123.646 11.608 124.048 11.566 124.449 11.566C124.813 11.566 125.182 11.594 125.555 11.65C125.928 11.6967 126.269 11.7947 126.577 11.944C126.885 12.0933 127.137 12.3033 127.333 12.574C127.529 12.8353 127.627 13.1853 127.627 13.624V17.39C127.627 17.7167 127.646 18.0293 127.683 18.328C127.72 18.6267 127.786 18.8507 127.879 19H125.863C125.826 18.888 125.793 18.776 125.765 18.664C125.746 18.5427 125.732 18.4213 125.723 18.3C125.406 18.6267 125.032 18.8553 124.603 18.986C124.174 19.1167 123.735 19.182 123.287 19.182C122.942 19.182 122.62 19.14 122.321 19.056C122.022 18.972 121.761 18.8413 121.537 18.664C121.313 18.4867 121.136 18.2627 121.005 17.992C120.884 17.7213 120.823 17.3993 120.823 17.026C120.823 16.6153 120.893 16.2793 121.033 16.018C121.182 15.7473 121.369 15.5327 121.593 15.374C121.826 15.2153 122.088 15.0987 122.377 15.024C122.676 14.94 122.974 14.8747 123.273 14.828C123.572 14.7813 123.866 14.744 124.155 14.716C124.444 14.688 124.701 14.646 124.925 14.59C125.149 14.534 125.326 14.4547 125.457 14.352C125.588 14.24 125.648 14.0813 125.639 13.876C125.639 13.6613 125.602 13.4933 125.527 13.372C125.462 13.2413 125.368 13.1433 125.247 13.078C125.135 13.0033 125 12.9567 124.841 12.938C124.692 12.91 124.528 12.896 124.351 12.896C123.959 12.896 123.651 12.98 123.427 13.148C123.203 13.316 123.072 13.596 123.035 13.988H121.047ZM125.639 15.458C125.555 15.5327 125.448 15.5933 125.317 15.64C125.196 15.6773 125.06 15.71 124.911 15.738C124.771 15.766 124.622 15.7893 124.463 15.808C124.304 15.8267 124.146 15.85 123.987 15.878C123.838 15.906 123.688 15.9433 123.539 15.99C123.399 16.0367 123.273 16.102 123.161 16.186C123.058 16.2607 122.974 16.3587 122.909 16.48C122.844 16.6013 122.811 16.7553 122.811 16.942C122.811 17.1193 122.844 17.2687 122.909 17.39C122.974 17.5113 123.063 17.6093 123.175 17.684C123.287 17.7493 123.418 17.796 123.567 17.824C123.716 17.852 123.87 17.866 124.029 17.866C124.421 17.866 124.724 17.8007 124.939 17.67C125.154 17.5393 125.312 17.3853 125.415 17.208C125.518 17.0213 125.578 16.8347 125.597 16.648C125.625 16.4613 125.639 16.312 125.639 16.2V15.458ZM129.17 11.762V19H131.158V15.206C131.158 14.4687 131.279 13.9413 131.522 13.624C131.765 13.2973 132.157 13.134 132.698 13.134C133.174 13.134 133.505 13.2833 133.692 13.582C133.879 13.8713 133.972 14.3147 133.972 14.912V19H135.96V14.548C135.96 14.1 135.918 13.694 135.834 13.33C135.759 12.9567 135.624 12.644 135.428 12.392C135.232 12.1307 134.961 11.93 134.616 11.79C134.28 11.6407 133.846 11.566 133.314 11.566C132.894 11.566 132.483 11.664 132.082 11.86C131.681 12.0467 131.354 12.35 131.102 12.77H131.06V11.762H129.17ZM143.773 13.708V10.712H145.481C145.733 10.712 145.976 10.7307 146.209 10.768C146.443 10.8053 146.648 10.88 146.825 10.992C147.003 11.0947 147.143 11.244 147.245 11.44C147.357 11.636 147.413 11.8927 147.413 12.21C147.413 12.5273 147.357 12.784 147.245 12.98C147.143 13.176 147.003 13.33 146.825 13.442C146.648 13.5447 146.443 13.6147 146.209 13.652C145.976 13.6893 145.733 13.708 145.481 13.708H143.773ZM141.575 9.004V19H143.773V15.416H146.083C146.709 15.416 147.241 15.3273 147.679 15.15C148.118 14.9633 148.473 14.7207 148.743 14.422C149.023 14.1233 149.224 13.7827 149.345 13.4C149.476 13.008 149.541 12.6113 149.541 12.21C149.541 11.7993 149.476 11.4027 149.345 11.02C149.224 10.6373 149.023 10.2967 148.743 9.998C148.473 9.69933 148.118 9.46133 147.679 9.284C147.241 9.09733 146.709 9.004 146.083 9.004H141.575ZM152.467 15.388C152.467 15.0987 152.495 14.814 152.551 14.534C152.607 14.254 152.701 14.0067 152.831 13.792C152.971 13.5773 153.153 13.4047 153.377 13.274C153.601 13.134 153.881 13.064 154.217 13.064C154.553 13.064 154.833 13.134 155.057 13.274C155.291 13.4047 155.473 13.5773 155.603 13.792C155.743 14.0067 155.841 14.254 155.897 14.534C155.953 14.814 155.981 15.0987 155.981 15.388C155.981 15.6773 155.953 15.962 155.897 16.242C155.841 16.5127 155.743 16.76 155.603 16.984C155.473 17.1987 155.291 17.3713 155.057 17.502C154.833 17.6327 154.553 17.698 154.217 17.698C153.881 17.698 153.601 17.6327 153.377 17.502C153.153 17.3713 152.971 17.1987 152.831 16.984C152.701 16.76 152.607 16.5127 152.551 16.242C152.495 15.962 152.467 15.6773 152.467 15.388ZM150.479 15.388C150.479 15.9667 150.568 16.4893 150.745 16.956C150.923 17.4227 151.175 17.824 151.501 18.16C151.828 18.4867 152.22 18.7387 152.677 18.916C153.135 19.0933 153.648 19.182 154.217 19.182C154.787 19.182 155.3 19.0933 155.757 18.916C156.224 18.7387 156.621 18.4867 156.947 18.16C157.274 17.824 157.526 17.4227 157.703 16.956C157.881 16.4893 157.969 15.9667 157.969 15.388C157.969 14.8093 157.881 14.2867 157.703 13.82C157.526 13.344 157.274 12.9427 156.947 12.616C156.621 12.28 156.224 12.0233 155.757 11.846C155.3 11.6593 154.787 11.566 154.217 11.566C153.648 11.566 153.135 11.6593 152.677 11.846C152.22 12.0233 151.828 12.28 151.501 12.616C151.175 12.9427 150.923 13.344 150.745 13.82C150.568 14.2867 150.479 14.8093 150.479 15.388ZM160.802 16.648H158.912C158.931 17.1333 159.038 17.5393 159.234 17.866C159.439 18.1833 159.696 18.44 160.004 18.636C160.321 18.832 160.681 18.972 161.082 19.056C161.483 19.14 161.894 19.182 162.314 19.182C162.725 19.182 163.126 19.14 163.518 19.056C163.919 18.9813 164.274 18.846 164.582 18.65C164.89 18.454 165.137 18.1973 165.324 17.88C165.52 17.5533 165.618 17.152 165.618 16.676C165.618 16.34 165.553 16.06 165.422 15.836C165.291 15.6027 165.119 15.4113 164.904 15.262C164.689 15.1033 164.442 14.9773 164.162 14.884C163.891 14.7907 163.611 14.7113 163.322 14.646C163.042 14.5807 162.767 14.52 162.496 14.464C162.225 14.408 161.983 14.3473 161.768 14.282C161.563 14.2073 161.395 14.114 161.264 14.002C161.133 13.89 161.068 13.7453 161.068 13.568C161.068 13.4187 161.105 13.302 161.18 13.218C161.255 13.1247 161.343 13.0547 161.446 13.008C161.558 12.9613 161.679 12.9333 161.81 12.924C161.941 12.9053 162.062 12.896 162.174 12.896C162.529 12.896 162.837 12.966 163.098 13.106C163.359 13.2367 163.504 13.4933 163.532 13.876H165.422C165.385 13.428 165.268 13.0593 165.072 12.77C164.885 12.4713 164.647 12.2333 164.358 12.056C164.069 11.8787 163.737 11.7527 163.364 11.678C163 11.6033 162.622 11.566 162.23 11.566C161.838 11.566 161.455 11.6033 161.082 11.678C160.709 11.7433 160.373 11.8647 160.074 12.042C159.775 12.21 159.533 12.4433 159.346 12.742C159.169 13.0407 159.08 13.4233 159.08 13.89C159.08 14.2073 159.145 14.478 159.276 14.702C159.407 14.9167 159.579 15.0987 159.794 15.248C160.009 15.388 160.251 15.5047 160.522 15.598C160.802 15.682 161.087 15.7567 161.376 15.822C162.085 15.9713 162.636 16.1207 163.028 16.27C163.429 16.4193 163.63 16.6433 163.63 16.942C163.63 17.1193 163.588 17.2687 163.504 17.39C163.42 17.502 163.313 17.5953 163.182 17.67C163.061 17.7353 162.921 17.7867 162.762 17.824C162.613 17.852 162.468 17.866 162.328 17.866C162.132 17.866 161.941 17.8427 161.754 17.796C161.577 17.7493 161.418 17.6793 161.278 17.586C161.138 17.4833 161.021 17.3573 160.928 17.208C160.844 17.0493 160.802 16.8627 160.802 16.648ZM169.301 11.762V9.592H167.313V11.762H166.109V13.092H167.313V17.362C167.313 17.726 167.374 18.02 167.495 18.244C167.617 18.468 167.78 18.6407 167.985 18.762C168.2 18.8833 168.443 18.9627 168.713 19C168.993 19.0467 169.287 19.07 169.595 19.07C169.791 19.07 169.992 19.0653 170.197 19.056C170.403 19.0467 170.589 19.028 170.757 19V17.46C170.664 17.4787 170.566 17.4927 170.463 17.502C170.361 17.5113 170.253 17.516 170.141 17.516C169.805 17.516 169.581 17.46 169.469 17.348C169.357 17.236 169.301 17.012 169.301 16.676V13.092H170.757V11.762H169.301Z" fill="black"/>
<path d="M82.035 24.29V35H84.39V24.29H82.035ZM86.2338 27.245V35H88.3638V30.935C88.3638 30.145 88.4938 29.58 88.7538 29.24C89.0138 28.89 89.4338 28.715 90.0138 28.715C90.5238 28.715 90.8788 28.875 91.0788 29.195C91.2788 29.505 91.3788 29.98 91.3788 30.62V35H93.5088V30.23C93.5088 29.75 93.4638 29.315 93.3738 28.925C93.2938 28.525 93.1488 28.19 92.9388 27.92C92.7288 27.64 92.4388 27.425 92.0688 27.275C91.7088 27.115 91.2438 27.035 90.6738 27.035C90.2238 27.035 89.7838 27.14 89.3538 27.35C88.9238 27.55 88.5738 27.875 88.3038 28.325H88.2588V27.245H86.2338ZM97.8254 27.245V24.92H95.6954V27.245H94.4054V28.67H95.6954V33.245C95.6954 33.635 95.7604 33.95 95.8904 34.19C96.0204 34.43 96.1954 34.615 96.4154 34.745C96.6454 34.875 96.9054 34.96 97.1954 35C97.4954 35.05 97.8104 35.075 98.1404 35.075C98.3504 35.075 98.5654 35.07 98.7854 35.06C99.0054 35.05 99.2054 35.03 99.3854 35V33.35C99.2854 33.37 99.1804 33.385 99.0704 33.395C98.9604 33.405 98.8454 33.41 98.7254 33.41C98.3654 33.41 98.1254 33.35 98.0054 33.23C97.8854 33.11 97.8254 32.87 97.8254 32.51V28.67H99.3854V27.245H97.8254ZM105.619 30.29H102.154C102.164 30.14 102.194 29.97 102.244 29.78C102.304 29.59 102.399 29.41 102.529 29.24C102.669 29.07 102.849 28.93 103.069 28.82C103.299 28.7 103.584 28.64 103.924 28.64C104.444 28.64 104.829 28.78 105.079 29.06C105.339 29.34 105.519 29.75 105.619 30.29ZM102.154 31.64H107.749C107.789 31.04 107.739 30.465 107.599 29.915C107.459 29.365 107.229 28.875 106.909 28.445C106.599 28.015 106.199 27.675 105.709 27.425C105.219 27.165 104.644 27.035 103.984 27.035C103.394 27.035 102.854 27.14 102.364 27.35C101.884 27.56 101.469 27.85 101.119 28.22C100.769 28.58 100.499 29.01 100.309 29.51C100.119 30.01 100.024 30.55 100.024 31.13C100.024 31.73 100.114 32.28 100.294 32.78C100.484 33.28 100.749 33.71 101.089 34.07C101.429 34.43 101.844 34.71 102.334 34.91C102.824 35.1 103.374 35.195 103.984 35.195C104.864 35.195 105.614 34.995 106.234 34.595C106.854 34.195 107.314 33.53 107.614 32.6H105.739C105.669 32.84 105.479 33.07 105.169 33.29C104.859 33.5 104.489 33.605 104.059 33.605C103.459 33.605 102.999 33.45 102.679 33.14C102.359 32.83 102.184 32.33 102.154 31.64ZM109.012 27.245V35H111.142V31.505C111.142 31.155 111.177 30.83 111.247 30.53C111.317 30.23 111.432 29.97 111.592 29.75C111.762 29.52 111.982 29.34 112.252 29.21C112.522 29.08 112.852 29.015 113.242 29.015C113.372 29.015 113.507 29.025 113.647 29.045C113.787 29.055 113.907 29.07 114.007 29.09V27.11C113.837 27.06 113.682 27.035 113.542 27.035C113.272 27.035 113.012 27.075 112.762 27.155C112.512 27.235 112.277 27.35 112.057 27.5C111.837 27.64 111.642 27.815 111.472 28.025C111.302 28.225 111.167 28.445 111.067 28.685H111.037V27.245H109.012ZM115.106 27.245V35H117.236V30.935C117.236 30.145 117.366 29.58 117.626 29.24C117.886 28.89 118.306 28.715 118.886 28.715C119.396 28.715 119.751 28.875 119.951 29.195C120.151 29.505 120.251 29.98 120.251 30.62V35H122.381V30.23C122.381 29.75 122.336 29.315 122.246 28.925C122.166 28.525 122.021 28.19 121.811 27.92C121.601 27.64 121.311 27.425 120.941 27.275C120.581 27.115 120.116 27.035 119.546 27.035C119.096 27.035 118.656 27.14 118.226 27.35C117.796 27.55 117.446 27.875 117.176 28.325H117.131V27.245H115.106ZM123.908 29.63C123.938 29.13 124.063 28.715 124.283 28.385C124.503 28.055 124.783 27.79 125.123 27.59C125.463 27.39 125.843 27.25 126.263 27.17C126.693 27.08 127.123 27.035 127.553 27.035C127.943 27.035 128.338 27.065 128.738 27.125C129.138 27.175 129.503 27.28 129.833 27.44C130.163 27.6 130.433 27.825 130.643 28.115C130.853 28.395 130.958 28.77 130.958 29.24V33.275C130.958 33.625 130.978 33.96 131.018 34.28C131.058 34.6 131.128 34.84 131.228 35H129.068C129.028 34.88 128.993 34.76 128.963 34.64C128.943 34.51 128.928 34.38 128.918 34.25C128.578 34.6 128.178 34.845 127.718 34.985C127.258 35.125 126.788 35.195 126.308 35.195C125.938 35.195 125.593 35.15 125.273 35.06C124.953 34.97 124.673 34.83 124.433 34.64C124.193 34.45 124.003 34.21 123.863 33.92C123.733 33.63 123.668 33.285 123.668 32.885C123.668 32.445 123.743 32.085 123.893 31.805C124.053 31.515 124.253 31.285 124.493 31.115C124.743 30.945 125.023 30.82 125.333 30.74C125.653 30.65 125.973 30.58 126.293 30.53C126.613 30.48 126.928 30.44 127.238 30.41C127.548 30.38 127.823 30.335 128.063 30.275C128.303 30.215 128.493 30.13 128.633 30.02C128.773 29.9 128.838 29.73 128.828 29.51C128.828 29.28 128.788 29.1 128.708 28.97C128.638 28.83 128.538 28.725 128.408 28.655C128.288 28.575 128.143 28.525 127.973 28.505C127.813 28.475 127.638 28.46 127.448 28.46C127.028 28.46 126.698 28.55 126.458 28.73C126.218 28.91 126.078 29.21 126.038 29.63H123.908ZM128.828 31.205C128.738 31.285 128.623 31.35 128.483 31.4C128.353 31.44 128.208 31.475 128.048 31.505C127.898 31.535 127.738 31.56 127.568 31.58C127.398 31.6 127.228 31.625 127.058 31.655C126.898 31.685 126.738 31.725 126.578 31.775C126.428 31.825 126.293 31.895 126.173 31.985C126.063 32.065 125.973 32.17 125.903 32.3C125.833 32.43 125.798 32.595 125.798 32.795C125.798 32.985 125.833 33.145 125.903 33.275C125.973 33.405 126.068 33.51 126.188 33.59C126.308 33.66 126.448 33.71 126.608 33.74C126.768 33.77 126.933 33.785 127.103 33.785C127.523 33.785 127.848 33.715 128.078 33.575C128.308 33.435 128.478 33.27 128.588 33.08C128.698 32.88 128.763 32.68 128.783 32.48C128.813 32.28 128.828 32.12 128.828 32V31.205ZM135.311 27.245V24.92H133.181V27.245H131.891V28.67H133.181V33.245C133.181 33.635 133.246 33.95 133.376 34.19C133.506 34.43 133.681 34.615 133.901 34.745C134.131 34.875 134.391 34.96 134.681 35C134.981 35.05 135.296 35.075 135.626 35.075C135.836 35.075 136.051 35.07 136.271 35.06C136.491 35.05 136.691 35.03 136.871 35V33.35C136.771 33.37 136.666 33.385 136.556 33.395C136.446 33.405 136.331 33.41 136.211 33.41C135.851 33.41 135.611 33.35 135.491 33.23C135.371 33.11 135.311 32.87 135.311 32.51V28.67H136.871V27.245H135.311ZM140.074 26.045V24.29H137.944V26.045H140.074ZM137.944 27.245V35H140.074V27.245H137.944ZM143.641 31.13C143.641 30.82 143.671 30.515 143.731 30.215C143.791 29.915 143.891 29.65 144.031 29.42C144.181 29.19 144.376 29.005 144.616 28.865C144.856 28.715 145.156 28.64 145.516 28.64C145.876 28.64 146.176 28.715 146.416 28.865C146.666 29.005 146.861 29.19 147.001 29.42C147.151 29.65 147.256 29.915 147.316 30.215C147.376 30.515 147.406 30.82 147.406 31.13C147.406 31.44 147.376 31.745 147.316 32.045C147.256 32.335 147.151 32.6 147.001 32.84C146.861 33.07 146.666 33.255 146.416 33.395C146.176 33.535 145.876 33.605 145.516 33.605C145.156 33.605 144.856 33.535 144.616 33.395C144.376 33.255 144.181 33.07 144.031 32.84C143.891 32.6 143.791 32.335 143.731 32.045C143.671 31.745 143.641 31.44 143.641 31.13ZM141.511 31.13C141.511 31.75 141.606 32.31 141.796 32.81C141.986 33.31 142.256 33.74 142.606 34.1C142.956 34.45 143.376 34.72 143.866 34.91C144.356 35.1 144.906 35.195 145.516 35.195C146.126 35.195 146.676 35.1 147.166 34.91C147.666 34.72 148.091 34.45 148.441 34.1C148.791 33.74 149.061 33.31 149.251 32.81C149.441 32.31 149.536 31.75 149.536 31.13C149.536 30.51 149.441 29.95 149.251 29.45C149.061 28.94 148.791 28.51 148.441 28.16C148.091 27.8 147.666 27.525 147.166 27.335C146.676 27.135 146.126 27.035 145.516 27.035C144.906 27.035 144.356 27.135 143.866 27.335C143.376 27.525 142.956 27.8 142.606 28.16C142.256 28.51 141.986 28.94 141.796 29.45C141.606 29.95 141.511 30.51 141.511 31.13ZM150.921 27.245V35H153.051V30.935C153.051 30.145 153.181 29.58 153.441 29.24C153.701 28.89 154.121 28.715 154.701 28.715C155.211 28.715 155.566 28.875 155.766 29.195C155.966 29.505 156.066 29.98 156.066 30.62V35H158.196V30.23C158.196 29.75 158.151 29.315 158.061 28.925C157.981 28.525 157.836 28.19 157.626 27.92C157.416 27.64 157.126 27.425 156.756 27.275C156.396 27.115 155.931 27.035 155.361 27.035C154.911 27.035 154.471 27.14 154.041 27.35C153.611 27.55 153.261 27.875 152.991 28.325H152.946V27.245H150.921ZM159.723 29.63C159.753 29.13 159.878 28.715 160.098 28.385C160.318 28.055 160.598 27.79 160.938 27.59C161.278 27.39 161.658 27.25 162.078 27.17C162.508 27.08 162.938 27.035 163.368 27.035C163.758 27.035 164.153 27.065 164.553 27.125C164.953 27.175 165.318 27.28 165.648 27.44C165.978 27.6 166.248 27.825 166.458 28.115C166.668 28.395 166.773 28.77 166.773 29.24V33.275C166.773 33.625 166.793 33.96 166.833 34.28C166.873 34.6 166.943 34.84 167.043 35H164.883C164.843 34.88 164.808 34.76 164.778 34.64C164.758 34.51 164.743 34.38 164.733 34.25C164.393 34.6 163.993 34.845 163.533 34.985C163.073 35.125 162.603 35.195 162.123 35.195C161.753 35.195 161.408 35.15 161.088 35.06C160.768 34.97 160.488 34.83 160.248 34.64C160.008 34.45 159.818 34.21 159.678 33.92C159.548 33.63 159.483 33.285 159.483 32.885C159.483 32.445 159.558 32.085 159.708 31.805C159.868 31.515 160.068 31.285 160.308 31.115C160.558 30.945 160.838 30.82 161.148 30.74C161.468 30.65 161.788 30.58 162.108 30.53C162.428 30.48 162.743 30.44 163.053 30.41C163.363 30.38 163.638 30.335 163.878 30.275C164.118 30.215 164.308 30.13 164.448 30.02C164.588 29.9 164.653 29.73 164.643 29.51C164.643 29.28 164.603 29.1 164.523 28.97C164.453 28.83 164.353 28.725 164.223 28.655C164.103 28.575 163.958 28.525 163.788 28.505C163.628 28.475 163.453 28.46 163.263 28.46C162.843 28.46 162.513 28.55 162.273 28.73C162.033 28.91 161.893 29.21 161.853 29.63H159.723ZM164.643 31.205C164.553 31.285 164.438 31.35 164.298 31.4C164.168 31.44 164.023 31.475 163.863 31.505C163.713 31.535 163.553 31.56 163.383 31.58C163.213 31.6 163.043 31.625 162.873 31.655C162.713 31.685 162.553 31.725 162.393 31.775C162.243 31.825 162.108 31.895 161.988 31.985C161.878 32.065 161.788 32.17 161.718 32.3C161.648 32.43 161.613 32.595 161.613 32.795C161.613 32.985 161.648 33.145 161.718 33.275C161.788 33.405 161.883 33.51 162.003 33.59C162.123 33.66 162.263 33.71 162.423 33.74C162.583 33.77 162.748 33.785 162.918 33.785C163.338 33.785 163.663 33.715 163.893 33.575C164.123 33.435 164.293 33.27 164.403 33.08C164.513 32.88 164.578 32.68 164.598 32.48C164.628 32.28 164.643 32.12 164.643 32V31.205ZM168.486 24.29V35H170.616V24.29H168.486Z" fill="black"/>
<path d="M172 1H81V3H172V1Z" fill="black"/>
</svg>
