<svg width="26" height="26" viewBox="0 0 26 26" fill="none" xmlns="http://www.w3.org/2000/svg">
<path d="M22.5871 20.3952C22.5128 20.3475 21.9536 19.96 21.3937 18.7879C20.3654 16.6354 20.1496 13.6033 20.1496 11.4387C20.1496 11.4293 20.1494 11.42 20.1491 11.4106C20.1379 8.5498 18.4059 6.08369 15.9275 4.9772V3.28496C15.9275 1.74932 14.6665 0.5 13.1165 0.5H12.8835C11.3335 0.5 10.0725 1.74932 10.0725 3.28496V4.9771C7.58577 6.08716 5.85038 8.56587 5.85038 11.4387C5.85038 13.6033 5.63455 16.6354 4.60629 18.7879C4.04642 19.96 3.48724 20.3474 3.4129 20.3952C3.09981 20.5385 2.94544 20.8695 3.01747 21.205C3.09019 21.5438 3.41038 21.7774 3.76004 21.7774H9.18777C9.21808 23.8351 10.916 25.5 13 25.5C15.084 25.5 16.782 23.8351 16.8123 21.7774H22.24C22.5896 21.7774 22.9099 21.5438 22.9826 21.205C23.0545 20.8695 22.9002 20.5384 22.5871 20.3952V20.3952ZM11.5535 3.28496C11.5535 2.55835 12.1502 1.96724 12.8836 1.96724H13.1165C13.8499 1.96724 14.4466 2.55835 14.4466 3.28496V4.50161C13.9792 4.40605 13.4953 4.35576 12.9998 4.35576C12.5045 4.35576 12.0208 4.40601 11.5536 4.50146V3.28496H11.5535ZM13 24.0328C11.7326 24.0328 10.6988 23.0261 10.6688 21.7775H15.3312C15.3012 23.026 14.2674 24.0328 13 24.0328V24.0328ZM15.9818 20.3102C15.9816 20.3102 5.44765 20.3102 5.44765 20.3102C5.57575 20.1127 5.70613 19.8891 5.83572 19.6364C6.82819 17.7007 7.33143 14.9426 7.33143 11.4387C7.33143 8.34219 9.87426 5.823 12.9998 5.823C16.1253 5.823 18.6681 8.34219 18.6681 11.4412C18.6681 11.4502 18.6683 11.4592 18.6686 11.4682C18.6714 14.958 19.1746 17.7062 20.1643 19.6364C20.2939 19.8892 20.4243 20.1127 20.5524 20.3102H15.9818Z" fill="#666666"/>
</svg>
