<svg width="20" height="20" viewBox="0 0 20 20" fill="none" xmlns="http://www.w3.org/2000/svg">
<path d="M19.4635 4.25636C19.4635 4.00263 19.3103 3.77401 19.0756 3.67757L10.2378 0.0469287C10.0854 -0.0156429 9.91462 -0.0156429 9.76226 0.0469287L0.924489 3.67757C0.689806 3.77397 0.536545 4.00263 0.536545 4.25636V15.7436C0.536545 15.9974 0.689767 16.226 0.924489 16.3224L9.76226 19.9531C9.91298 20.015 10.0824 20.0163 10.237 19.953C10.2446 19.9505 9.90997 20.0878 19.0756 16.3224C19.3103 16.226 19.4635 15.9974 19.4635 15.7436V4.25636ZM10 7.26316L6.74365 5.92541L13.781 2.85546L17.2552 4.28268L10 7.26316ZM1.78798 5.24248L4.59748 6.39666V9.65288C4.59748 9.99844 4.87765 10.2786 5.2232 10.2786C5.56875 10.2786 5.84891 9.99844 5.84891 9.65288V6.91076L9.37432 8.35902V18.4408L1.78798 15.3242V5.24248ZM10 1.30215L12.1692 2.19325L5.13177 5.26321L2.74485 4.28264L10 1.30215ZM10.6257 8.35902L18.2121 5.24248V15.3242L10.6257 18.4408V8.35902Z" fill="#666666"/>
</svg>
