<svg width="22" height="22" viewBox="0 0 22 22" fill="none" xmlns="http://www.w3.org/2000/svg">
<path d="M15.1861 8.3554L15.1861 8.3554C15.3926 8.44025 15.5274 8.64138 15.5274 8.86463V17.1355C15.5274 17.3587 15.3926 17.5599 15.1861 17.6447M15.1861 8.3554L15.1481 17.5522M15.1861 8.3554L8.8229 5.74134L8.82289 5.74133M15.1861 8.3554L8.82289 5.74133M15.1861 17.6447L15.1481 17.5522M15.1861 17.6447L15.1861 17.6447L15.1481 17.5522M15.1861 17.6447L9.53153 19.9677L8.8909 20.2308L8.82624 20.2573L8.822 20.259L8.81977 20.2598L8.81833 20.2604M15.1481 17.5522C10.3119 19.539 9.14925 20.0167 8.87106 20.1308C8.8771 20.1408 8.88182 20.151 8.88428 20.1606C8.88313 20.1755 8.87798 20.193 8.87248 20.2071M8.81833 20.2604C8.81962 20.2598 8.82091 20.2593 8.82221 20.2588L8.78436 20.1663M8.81833 20.2604L8.81738 20.2607L8.81734 20.2607C8.81688 20.2609 8.8134 20.2621 8.80901 20.2632L8.80212 20.2647C8.80061 20.265 8.79793 20.2653 8.79494 20.2656M8.81833 20.2604C8.68354 20.3143 8.53589 20.3127 8.40451 20.2588L8.4425 20.1663M8.78436 20.1663C8.78585 20.1658 8.79753 20.161 8.86914 20.1316C8.87581 20.1587 8.87612 20.1883 8.87248 20.2071M8.78436 20.1663L8.8158 20.2612L8.8125 20.2622C8.8114 20.2625 8.80828 20.2634 8.8042 20.2642C8.80235 20.2646 8.79818 20.2652 8.79494 20.2656M8.78436 20.1663C8.78423 20.1664 8.78418 20.1664 8.78417 20.1664C8.78417 20.1664 8.78427 20.1663 8.78435 20.1663C8.78444 20.1662 8.7845 20.1662 8.78433 20.1662C8.75586 20.1779 8.72669 20.1865 8.69723 20.1921C8.69812 20.1967 8.69918 20.2013 8.70042 20.2058M8.87248 20.2071C8.86934 20.2152 8.86609 20.2221 8.86341 20.2267M8.87248 20.2071C8.87146 20.2124 8.87014 20.2168 8.86857 20.22C8.86707 20.2221 8.86529 20.2244 8.86341 20.2267M8.86341 20.2267C8.85868 20.2325 8.85332 20.2383 8.85023 20.2414M8.86341 20.2267C8.86246 20.2284 8.86158 20.2297 8.8608 20.2308C8.85785 20.2341 8.85344 20.2384 8.85023 20.2414M8.85023 20.2414C8.84968 20.2419 8.84918 20.2423 8.84871 20.2427M8.85023 20.2414C8.84975 20.2418 8.84933 20.2422 8.84898 20.2425C8.84889 20.2426 8.8488 20.2427 8.84871 20.2427M8.84871 20.2427C8.84736 20.2438 8.84559 20.2452 8.84404 20.2464L8.8472 20.2441C8.84761 20.2437 8.84812 20.2433 8.84871 20.2427ZM8.79494 20.2656C8.79431 20.2657 8.79372 20.2658 8.79318 20.2658C8.79294 20.2658 8.79268 20.2659 8.7924 20.2659M8.79494 20.2656C8.79411 20.2657 8.79326 20.2658 8.7924 20.2659M8.4425 20.1663C8.52192 20.1989 8.60854 20.2081 8.69293 20.1929C8.69516 20.1972 8.69768 20.2015 8.70042 20.2058M8.4425 20.1663L8.4045 20.2588L2.04131 17.6447L2.0413 17.6447C1.8348 17.5599 1.69999 17.3587 1.69999 17.1355V8.86463C1.69999 8.64139 1.83482 8.44022 2.04131 8.3554M8.4425 20.1663L2.07931 17.5522C1.91031 17.4828 1.79999 17.3182 1.79999 17.1355V8.86463C1.79999 8.68194 1.91034 8.51731 2.07931 8.4479L2.04131 8.3554M8.70042 20.2058C8.70366 20.2174 8.70812 20.2284 8.71402 20.2376C8.7231 20.2444 8.73478 20.2504 8.74618 20.2551M8.70042 20.2058C8.71336 20.2257 8.73119 20.2443 8.74618 20.2551M8.74618 20.2551C8.75137 20.2589 8.75622 20.2617 8.76041 20.2633C8.76551 20.2643 8.77199 20.265 8.77798 20.2654M8.74618 20.2551C8.75823 20.2601 8.76997 20.2637 8.77798 20.2654M8.77798 20.2654C8.78066 20.2659 8.78291 20.2663 8.78463 20.2664C8.78688 20.2663 8.78966 20.2661 8.7924 20.2659M8.77798 20.2654C8.78385 20.2658 8.78925 20.266 8.7924 20.2659M2.04131 8.3554L8.4045 5.74134M2.04131 8.3554L8.4045 5.74134M8.82289 5.74133C8.68884 5.68629 8.53856 5.68629 8.40452 5.74133L8.4045 5.74134M8.82289 5.74133L8.4045 5.74134M8.83188 20.2542L8.83508 20.2524C8.83292 20.2537 8.82939 20.2556 8.83188 20.2542ZM8.6137 10.9214L6.52554 10.0636L11.3372 7.96457L13.5743 8.88358L8.6137 10.9214ZM2.80102 16.7665V9.72383L4.62386 10.4727V12.7501C4.62386 13.0542 4.87035 13.3006 5.17438 13.3006C5.4784 13.3006 5.72489 13.0542 5.72489 12.7501V10.925L8.06318 11.8856V18.9282L2.80102 16.7665ZM8.6137 6.84571L9.91904 7.38195L5.10738 9.48097L3.65313 8.88355L8.6137 6.84571ZM9.16422 18.9282V11.8856L14.4264 9.72383V16.7665L9.16422 18.9282Z" fill="white" stroke="white" stroke-width="0.2"/>
<circle cx="17" cy="5" r="4.5" fill="#5ECC9B" stroke="white"/>
<path d="M18.9627 2.97833L18.9627 2.97833C19.1198 2.80723 19.3802 2.80721 19.5373 2.97834C19.6876 3.14206 19.6876 3.40263 19.5373 3.56636M18.9627 2.97833L19.4268 3.46492M18.9627 2.97833L16.0781 6.12077M18.9627 2.97833L15.0373 4.98699M19.5373 3.56636L19.4268 3.46492M19.5373 3.56636L19.5373 3.56635L19.4268 3.46492M19.5373 3.56636L16.3653 7.0217C16.2084 7.19269 15.9479 7.19285 15.7908 7.02169M19.4268 3.46492L16.2548 6.92027C16.1573 7.02654 15.9989 7.02662 15.9013 6.92027M15.7908 7.02169L15.7908 7.0217L15.9013 6.92027M15.7908 7.02169L14.4627 5.57499L14.5732 5.47356M15.7908 7.02169L15.9013 6.92027M15.9013 6.92027L14.5732 5.47356M14.5732 5.47356C14.4756 5.3672 14.4756 5.19477 14.5732 5.08842C14.6709 4.98207 14.8292 4.98206 14.9268 5.08842M14.5732 5.47356L19.0732 3.07977L16.1799 6.23167L16.0781 6.12077M14.5732 5.47356L14.4627 5.57499C14.3124 5.41126 14.3124 5.1507 14.4627 4.98698L14.4627 4.98697C14.6198 4.8159 14.8802 4.81586 15.0373 4.98698M14.5732 5.47356L15.0373 4.98698M14.9268 5.08842L15.9763 6.23167L16.0781 6.12077M14.9268 5.08842L15.0373 4.98698M14.9268 5.08842L15.0373 4.98699M16.0781 6.12077L15.0373 4.98699M15.0373 4.98699L15.0373 4.98698" fill="white" stroke="white" stroke-width="0.3"/>
</svg>
