<svg width="26" height="26" viewBox="0 0 26 26" fill="none" xmlns="http://www.w3.org/2000/svg">
<path d="M13 17.9834C10.246 17.9834 8.00537 15.7478 8.00537 13C8.00537 10.2522 10.246 8.0166 13 8.0166C15.7538 8.0166 17.9944 10.2522 17.9944 13C17.9944 15.7478 15.7538 17.9834 13 17.9834V17.9834ZM13 9.5116C11.072 9.5116 9.50374 11.0765 9.50374 13C9.50374 14.9235 11.072 16.4884 13 16.4884C14.9278 16.4884 16.4961 14.9235 16.4961 13C16.4961 11.0765 14.9278 9.5116 13 9.5116V9.5116Z" fill="#666666"/>
<path d="M14.6611 24.96H11.3386C10.5395 24.96 9.8333 24.3939 9.65954 23.6136L9.23903 21.7478C8.55368 21.4578 7.90034 21.0791 7.28706 20.6167L5.46604 21.1906C4.68485 21.4328 3.83579 21.1019 3.44419 20.4042L1.78816 17.5469C1.39143 16.8392 1.52532 15.9681 2.10879 15.4199L3.5201 14.1253C3.4773 13.7455 3.45626 13.3689 3.45626 13C3.45626 12.6312 3.4773 12.2545 3.51918 11.8748L2.11574 10.5862C1.52532 10.0319 1.39052 9.16089 1.78303 8.4623L3.44931 5.5869C3.83579 4.89707 4.68686 4.56931 5.46311 4.80747L7.28706 5.38251C7.90034 4.92007 8.55368 4.54139 9.23903 4.25122L9.66045 2.38357C9.8333 1.60614 10.5395 1.04004 11.3386 1.04004H14.6611C15.4602 1.04004 16.1664 1.60614 16.3402 2.38649L16.7607 4.25232C17.446 4.5423 18.0994 4.92098 18.7127 5.38342L20.5337 4.80948C21.3169 4.56931 22.1639 4.89817 22.5555 5.59585L24.2118 8.45317C24.6083 9.16089 24.4744 10.0319 23.8909 10.5802L22.4796 11.8748C22.5215 12.2545 22.5426 12.6323 22.5426 13C22.5426 13.3678 22.5215 13.7455 22.4796 14.1253L23.884 15.413C23.886 15.415 23.888 15.417 23.8909 15.419C24.4744 15.967 24.6092 16.8383 24.2167 17.5369L22.5504 20.4123C22.1639 21.1019 21.3149 21.4319 20.5357 21.1906L18.7116 20.6156C18.0983 21.078 17.4449 21.4567 16.7598 21.7468L16.3382 23.6145C16.1664 24.3939 15.4602 24.96 14.6611 24.96ZM7.43997 19.0388C7.61171 19.0388 7.78054 19.0976 7.91644 19.2093C8.6027 19.7724 9.35079 20.207 10.143 20.498C10.3816 20.5856 10.5585 20.788 10.6145 21.0351L11.123 23.2877C11.1458 23.3913 11.2367 23.465 11.3397 23.465H14.662C14.765 23.465 14.8559 23.3913 14.8779 23.2897L15.3873 21.0351C15.4432 20.788 15.6201 20.5856 15.8588 20.498C16.6499 20.207 17.399 19.7724 18.0853 19.2093C18.2812 19.0477 18.5448 18.9959 18.7877 19.0727L20.9862 19.7655C21.091 19.7983 21.2029 19.7595 21.2509 19.6737L22.9171 16.7983C22.9671 16.7096 22.949 16.5881 22.8692 16.5103L21.183 14.9635C21.0001 14.796 20.9123 14.5478 20.9493 14.3027C21.0151 13.8612 21.0482 13.4227 21.0482 12.9991C21.0482 12.5754 21.0151 12.1368 20.9493 11.6954C20.9123 11.4503 21.0001 11.203 21.183 11.0346L22.8731 9.48372C22.949 9.4131 22.9671 9.28937 22.912 9.19082L21.2558 6.33331C21.202 6.23859 21.0881 6.20082 20.9842 6.23367L18.7886 6.92532C18.5468 7.00215 18.2832 6.95033 18.0864 6.78882C17.4001 6.22564 16.6519 5.79112 15.8597 5.50004C15.621 5.41244 15.4441 5.21005 15.3883 4.96295L14.8799 2.71042C14.8548 2.60877 14.7639 2.53504 14.6611 2.53504H11.3386C11.2358 2.53504 11.1449 2.60877 11.123 2.71042L10.6134 4.96496C10.5576 5.21206 10.3807 5.41335 10.142 5.50204C9.35079 5.79312 8.6016 6.22764 7.91644 6.79082C7.71963 6.95233 7.45387 7.00307 7.21426 6.92733L5.01554 6.23458C4.91275 6.20283 4.7988 6.2406 4.75087 6.32637L3.0846 9.20067C3.03466 9.29046 3.05277 9.41401 3.13563 9.49175L4.81983 11.0357C5.00255 11.203 5.09053 11.4512 5.05358 11.6965C4.98756 12.1379 4.95463 12.5765 4.95463 13C4.95463 13.4236 4.98756 13.8621 5.05358 14.3036C5.09053 14.5489 5.00255 14.796 4.81983 14.9644L3.12959 16.5153C3.05369 16.5861 3.03576 16.7096 3.09063 16.8083L4.74685 19.6657C4.79971 19.7604 4.91366 19.7973 5.01847 19.7655L7.21426 19.0737C7.28815 19.0498 7.36406 19.0388 7.43997 19.0388Z" fill="#666666"/>
</svg>
