<svg width="20" height="20" viewBox="0 0 20 20" fill="none" xmlns="http://www.w3.org/2000/svg">
<path d="M16.6667 14.1667V9.16669C16.6667 8.25002 15.9167 7.50002 15 7.50002H5.83333V5.83335L3.33333 8.33335L5.83333 10.8334V9.16669H9.16666V11.6667H3.33333V14.1667C3.33333 15.0834 4.08333 15.8334 4.99999 15.8334H6.66666C6.66666 17.2167 7.78333 18.3334 9.16666 18.3334C10.55 18.3334 11.6667 17.2167 11.6667 15.8334H18.3333V14.1667H16.6667ZM9.16666 16.6667C8.70833 16.6667 8.33333 16.2917 8.33333 15.8334C8.33333 15.375 8.70833 15 9.16666 15C9.62499 15 9.99999 15.375 9.99999 15.8334C9.99999 16.2917 9.62499 16.6667 9.16666 16.6667ZM15 11.6667H11.6667V9.16669H15V11.6667ZM14.1667 1.66669V3.33335H7.49999V5.00002H14.1667V6.66669L16.6667 4.16669L14.1667 1.66669Z" fill="#666666"/>
</svg>
