<svg width="20" height="20" viewBox="0 0 20 20" fill="none" xmlns="http://www.w3.org/2000/svg">
<path d="M10 4.75C10.9625 4.75 11.75 5.5375 11.75 6.5C11.75 7.4625 10.9625 8.25 10 8.25C9.0375 8.25 8.25 7.4625 8.25 6.5C8.25 5.5375 9.0375 4.75 10 4.75ZM10 12.625C12.3625 12.625 15.075 13.7537 15.25 14.375V15.25H4.75V14.3837C4.925 13.7537 7.6375 12.625 10 12.625ZM10 3C8.06625 3 6.5 4.56625 6.5 6.5C6.5 8.43375 8.06625 10 10 10C11.9338 10 13.5 8.43375 13.5 6.5C13.5 4.56625 11.9338 3 10 3ZM10 10.875C7.66375 10.875 3 12.0475 3 14.375V17H17V14.375C17 12.0475 12.3363 10.875 10 10.875Z" fill="white"/>
</svg>
