<svg width="26" height="26" viewBox="0 0 26 26" fill="none" xmlns="http://www.w3.org/2000/svg">
<path d="M18.3486 14.3875C19.4287 13.1438 20.0833 11.5211 20.0833 9.74847C20.0833 9.70356 20.0819 9.65842 20.081 9.61337C20.9136 9.36625 21.7359 9.0752 22.546 8.73962C23.0244 8.54148 23.2515 7.99309 23.0534 7.51473C22.8552 7.03638 22.3068 6.80922 21.8285 7.00736C21.2336 7.25373 20.6317 7.47414 20.0236 7.66905C19.6533 3.84386 17.5994 1 15.0486 1C14.3329 1 13.6366 1.22584 13 1.65948C12.3634 1.22584 11.6671 1 10.9514 1C8.40063 1 6.3467 3.84386 5.97644 7.66905C5.36833 7.47419 4.76636 7.25378 4.17152 7.00736C3.6932 6.80922 3.14477 7.03638 2.94662 7.51473C2.74848 7.99309 2.97564 8.54148 3.454 8.73962C4.26414 9.0752 5.08642 9.36625 5.91897 9.61337C5.91813 9.65842 5.91667 9.70356 5.91667 9.74847C5.91667 11.5211 6.57128 13.1438 7.65137 14.3875C3.6047 15.9437 1 19.8139 1 24.0625C1 24.5803 1.41972 25 1.9375 25H24.0625C24.5803 25 25 24.5803 25 24.0625C25 19.8123 22.3936 15.943 18.3486 14.3875ZM10.9514 2.875C11.4269 2.875 11.8947 3.09845 12.342 3.53912C12.707 3.8987 13.293 3.8987 13.658 3.53912C14.1053 3.09845 14.5731 2.875 15.0486 2.875C17.0171 2.875 18.0504 6.18241 18.1829 8.17553C16.4907 8.56619 14.7578 8.76353 13 8.76353C11.2422 8.76353 9.50931 8.56619 7.81713 8.17553C7.94945 6.18447 8.98211 2.875 10.9514 2.875ZM13 10.6385C14.7598 10.6385 16.4965 10.4559 18.1967 10.0935C18.0184 12.8051 15.756 14.9568 13 14.9568C10.244 14.9568 7.98161 12.8051 7.80334 10.0935C9.50345 10.4558 11.2402 10.6385 13 10.6385ZM2.92689 23.125C3.31797 19.6094 5.88109 16.6589 9.34975 15.8167C10.4164 16.4607 11.6657 16.8318 13 16.8318C14.3343 16.8318 15.5836 16.4607 16.6503 15.8167C20.119 16.6589 22.682 19.6094 23.0731 23.125H2.92689Z" fill="#666666"/>
</svg>
