<svg width="380" height="60" viewBox="0 0 380 60" fill="none" xmlns="http://www.w3.org/2000/svg">
<path d="M14.1666 0.841646L5.83331 0.833313C4.91664 0.833313 4.17497 1.58331 4.17497 2.49998V17.5C4.17497 18.4166 4.91664 19.1666 5.83331 19.1666H14.1666C15.0833 19.1666 15.8333 18.4166 15.8333 17.5V2.49998C15.8333 1.58331 15.0833 0.841646 14.1666 0.841646ZM14.1666 15.8333H5.83331V4.16665H14.1666V15.8333Z" fill="#666666"/>
<path d="M14.1666 20.8416L5.83331 20.8333C4.91664 20.8333 4.17497 21.5833 4.17497 22.5V37.5C4.17497 38.4166 4.91664 39.1666 5.83331 39.1666H14.1666C15.0833 39.1666 15.8333 38.4166 15.8333 37.5V22.5C15.8333 21.5833 15.0833 20.8416 14.1666 20.8416ZM14.1666 35.8333H5.83331V24.1666H14.1666V35.8333Z" fill="black"/>
<path d="M36.6667 6.66668H34.1667V3.33334H22.5C21.5833 3.33334 20.8333 4.08334 20.8333 5.00001V14.1667H22.5C22.5 15.55 23.6167 16.6667 25 16.6667C26.3833 16.6667 27.5 15.55 27.5 14.1667H32.5C32.5 15.55 33.6167 16.6667 35 16.6667C36.3833 16.6667 37.5 15.55 37.5 14.1667H39.1667V10L36.6667 6.66668ZM36.25 7.91668L37.8833 10H34.1667V7.91668H36.25ZM25 15C24.5417 15 24.1667 14.625 24.1667 14.1667C24.1667 13.7083 24.5417 13.3333 25 13.3333C25.4583 13.3333 25.8333 13.7083 25.8333 14.1667C25.8333 14.625 25.4583 15 25 15ZM26.85 12.5C26.3917 11.9917 25.7417 11.6667 25 11.6667C24.2583 11.6667 23.6083 11.9917 23.15 12.5H22.5V5.00001H32.5V12.5H26.85ZM35 15C34.5417 15 34.1667 14.625 34.1667 14.1667C34.1667 13.7083 34.5417 13.3333 35 13.3333C35.4583 13.3333 35.8333 13.7083 35.8333 14.1667C35.8333 14.625 35.4583 15 35 15Z" fill="#666666"/>
<path d="M59.4635 4.25636C59.4635 4.00263 59.3103 3.77401 59.0756 3.67757L50.2378 0.0469287C50.0854 -0.0156429 49.9146 -0.0156429 49.7623 0.0469287L40.9245 3.67757C40.6898 3.77397 40.5365 4.00263 40.5365 4.25636V15.7436C40.5365 15.9974 40.6898 16.226 40.9245 16.3224L49.7623 19.9531C49.913 20.015 50.0824 20.0163 50.237 19.953C50.2446 19.9505 49.91 20.0878 59.0756 16.3224C59.3103 16.226 59.4635 15.9974 59.4635 15.7436V4.25636ZM50 7.26316L46.7436 5.92541L53.781 2.85546L57.2552 4.28268L50 7.26316ZM41.788 5.24248L44.5975 6.39666V9.65288C44.5975 9.99844 44.8776 10.2786 45.2232 10.2786C45.5687 10.2786 45.8489 9.99844 45.8489 9.65288V6.91076L49.3743 8.35902V18.4408L41.788 15.3242V5.24248ZM50 1.30215L52.1692 2.19325L45.1318 5.26321L42.7449 4.28264L50 1.30215ZM50.6257 8.35902L58.2121 5.24248V15.3242L50.6257 18.4408V8.35902Z" fill="#666666"/>
<path d="M63 12.5714H61V19H67.4286V17H63V12.5714ZM61 7.42857H63V3H67.4286V1H61V7.42857ZM77 17H72.5714V19H79V12.5714H77V17ZM72.5714 1V3H77V7.42857H79V1H72.5714Z" fill="#666666"/>
<rect x="65" y="9.5" width="10" height="1" fill="#666666"/>
<rect x="67" y="12" width="6" height="1" fill="#666666"/>
<rect x="67" y="7" width="6" height="1" fill="#666666"/>
<path d="M90 5.00001C90.9167 5.00001 91.6667 5.75001 91.6667 6.66668C91.6667 7.58334 90.9167 8.33334 90 8.33334C89.0833 8.33334 88.3333 7.58334 88.3333 6.66668C88.3333 5.75001 89.0833 5.00001 90 5.00001ZM90 12.5C92.25 12.5 94.8333 13.575 95 14.1667V15H85V14.175C85.1667 13.575 87.75 12.5 90 12.5ZM90 3.33334C88.1583 3.33334 86.6667 4.82501 86.6667 6.66668C86.6667 8.50834 88.1583 10 90 10C91.8417 10 93.3333 8.50834 93.3333 6.66668C93.3333 4.82501 91.8417 3.33334 90 3.33334ZM90 10.8333C87.775 10.8333 83.3333 11.95 83.3333 14.1667V16.6667H96.6667V14.1667C96.6667 11.95 92.225 10.8333 90 10.8333Z" fill="#666666"/>
<path d="M111.667 1.66666H105C104.083 1.66666 103.342 2.41666 103.342 3.33332L103.333 16.6667C103.333 17.5833 104.075 18.3333 104.992 18.3333H115C115.917 18.3333 116.667 17.5833 116.667 16.6667V6.66666L111.667 1.66666ZM105 16.6667V3.33332H110.833V7.49999H115V16.6667H105Z" fill="#666666"/>
<path d="M138.333 5.00001C138.333 4.08334 137.583 3.33334 136.667 3.33334H123.333C122.417 3.33334 121.667 4.08334 121.667 5.00001V15C121.667 15.9167 122.417 16.6667 123.333 16.6667H136.667C137.583 16.6667 138.333 15.9167 138.333 15V5.00001ZM136.667 5.00001L130 9.15834L123.333 5.00001H136.667ZM136.667 15H123.333V6.66668L130 10.8333L136.667 6.66668V15Z" fill="#666666"/>
<path d="M147.333 2.66666L144 5.99166H146.5V11.8333H148.167V5.99166H150.667L147.333 2.66666ZM153.167 14.3417V8.49999H151.5V14.3417H149L152.333 17.6667L155.667 14.3417H153.167Z" fill="#666666"/>
<path d="M170 18.3333C170.917 18.3333 171.667 17.5833 171.667 16.6667H168.333C168.333 17.5833 169.083 18.3333 170 18.3333ZM175 13.3333V9.16668C175 6.60834 173.642 4.46668 171.25 3.90001V3.33334C171.25 2.64168 170.692 2.08334 170 2.08334C169.308 2.08334 168.75 2.64168 168.75 3.33334V3.90001C166.367 4.46668 165 6.60001 165 9.16668V13.3333L163.333 15V15.8333H176.667V15L175 13.3333ZM173.333 14.1667H166.667V9.16668C166.667 7.10001 167.925 5.41668 170 5.41668C172.075 5.41668 173.333 7.10001 173.333 9.16668V14.1667Z" fill="#666666"/>
<path d="M196.667 14.1667V9.16666C196.667 8.24999 195.917 7.49999 195 7.49999H185.833V5.83332L183.333 8.33332L185.833 10.8333V9.16666H189.167V11.6667H183.333V14.1667C183.333 15.0833 184.083 15.8333 185 15.8333H186.667C186.667 17.2167 187.783 18.3333 189.167 18.3333C190.55 18.3333 191.667 17.2167 191.667 15.8333H198.333V14.1667H196.667ZM189.167 16.6667C188.708 16.6667 188.333 16.2917 188.333 15.8333C188.333 15.375 188.708 15 189.167 15C189.625 15 190 15.375 190 15.8333C190 16.2917 189.625 16.6667 189.167 16.6667ZM195 11.6667H191.667V9.16666H195V11.6667ZM194.167 1.66666V3.33332H187.5V4.99999H194.167V6.66666L196.667 4.16666L194.167 1.66666Z" fill="#666666"/>
<path d="M36.6667 26.6667H34.1667V23.3333H22.5C21.5833 23.3333 20.8333 24.0833 20.8333 25V34.1667H22.5C22.5 35.55 23.6167 36.6667 25 36.6667C26.3833 36.6667 27.5 35.55 27.5 34.1667H32.5C32.5 35.55 33.6167 36.6667 35 36.6667C36.3833 36.6667 37.5 35.55 37.5 34.1667H39.1667V30L36.6667 26.6667ZM36.25 27.9167L37.8833 30H34.1667V27.9167H36.25ZM25 35C24.5417 35 24.1667 34.625 24.1667 34.1667C24.1667 33.7083 24.5417 33.3333 25 33.3333C25.4583 33.3333 25.8333 33.7083 25.8333 34.1667C25.8333 34.625 25.4583 35 25 35ZM26.85 32.5C26.3917 31.9917 25.7417 31.6667 25 31.6667C24.2583 31.6667 23.6083 31.9917 23.15 32.5H22.5V25H32.5V32.5H26.85ZM35 35C34.5417 35 34.1667 34.625 34.1667 34.1667C34.1667 33.7083 34.5417 33.3333 35 33.3333C35.4583 33.3333 35.8333 33.7083 35.8333 34.1667C35.8333 34.625 35.4583 35 35 35Z" fill="black"/>
<path d="M59.4635 24.2564C59.4635 24.0026 59.3103 23.774 59.0756 23.6776L50.2378 20.0469C50.0854 19.9844 49.9146 19.9844 49.7623 20.0469L40.9245 23.6776C40.6898 23.774 40.5365 24.0026 40.5365 24.2564V35.7436C40.5365 35.9974 40.6898 36.226 40.9245 36.3224L49.7623 39.9531C49.913 40.015 50.0824 40.0163 50.237 39.953C50.2446 39.9505 49.91 40.0878 59.0756 36.3224C59.3103 36.226 59.4635 35.9974 59.4635 35.7436V24.2564ZM50 27.2632L46.7436 25.9254L53.781 22.8555L57.2552 24.2827L50 27.2632ZM41.788 25.2425L44.5975 26.3967V29.6529C44.5975 29.9984 44.8776 30.2786 45.2232 30.2786C45.5687 30.2786 45.8489 29.9984 45.8489 29.6529V26.9108L49.3743 28.359V38.4408L41.788 35.3242V25.2425ZM50 21.3022L52.1692 22.1933L45.1318 25.2632L42.7449 24.2826L50 21.3022ZM50.6257 28.359L58.2121 25.2425V35.3242L50.6257 38.4408V28.359Z" fill="black"/>
<path d="M63 32.5714H61V39H67.4286V37H63V32.5714ZM61 27.4286H63V23H67.4286V21H61V27.4286ZM77 37H72.5714V39H79V32.5714H77V37ZM72.5714 21V23H77V27.4286H79V21H72.5714Z" fill="black"/>
<rect x="65" y="29.5" width="10" height="1" fill="black"/>
<rect x="67" y="32" width="6" height="1" fill="black"/>
<rect x="67" y="27" width="6" height="1" fill="black"/>
<path d="M90 25C90.9167 25 91.6667 25.75 91.6667 26.6667C91.6667 27.5833 90.9167 28.3333 90 28.3333C89.0833 28.3333 88.3333 27.5833 88.3333 26.6667C88.3333 25.75 89.0833 25 90 25ZM90 32.5C92.25 32.5 94.8333 33.575 95 34.1667V35H85V34.175C85.1667 33.575 87.75 32.5 90 32.5ZM90 23.3333C88.1583 23.3333 86.6667 24.825 86.6667 26.6667C86.6667 28.5083 88.1583 30 90 30C91.8417 30 93.3333 28.5083 93.3333 26.6667C93.3333 24.825 91.8417 23.3333 90 23.3333ZM90 30.8333C87.775 30.8333 83.3333 31.95 83.3333 34.1667V36.6667H96.6667V34.1667C96.6667 31.95 92.225 30.8333 90 30.8333Z" fill="black"/>
<path d="M111.667 21.6667H105C104.083 21.6667 103.342 22.4167 103.342 23.3333L103.333 36.6667C103.333 37.5833 104.075 38.3333 104.992 38.3333H115C115.917 38.3333 116.667 37.5833 116.667 36.6667V26.6667L111.667 21.6667ZM105 36.6667V23.3333H110.833V27.5H115V36.6667H105Z" fill="black"/>
<path d="M138.333 25C138.333 24.0833 137.583 23.3333 136.667 23.3333H123.333C122.417 23.3333 121.667 24.0833 121.667 25V35C121.667 35.9167 122.417 36.6667 123.333 36.6667H136.667C137.583 36.6667 138.333 35.9167 138.333 35V25ZM136.667 25L130 29.1583L123.333 25H136.667ZM136.667 35H123.333V26.6667L130 30.8333L136.667 26.6667V35Z" fill="black"/>
<path d="M147.333 22.6667L144 25.9917H146.5V31.8333H148.167V25.9917H150.667L147.333 22.6667ZM153.167 34.3417V28.5H151.5V34.3417H149L152.333 37.6667L155.667 34.3417H153.167Z" fill="black"/>
<path d="M170 38.3333C170.917 38.3333 171.667 37.5833 171.667 36.6667H168.333C168.333 37.5833 169.083 38.3333 170 38.3333ZM175 33.3333V29.1667C175 26.6083 173.642 24.4667 171.25 23.9V23.3333C171.25 22.6417 170.692 22.0833 170 22.0833C169.308 22.0833 168.75 22.6417 168.75 23.3333V23.9C166.367 24.4667 165 26.6 165 29.1667V33.3333L163.333 35V35.8333H176.667V35L175 33.3333ZM173.333 34.1667H166.667V29.1667C166.667 27.1 167.925 25.4167 170 25.4167C172.075 25.4167 173.333 27.1 173.333 29.1667V34.1667Z" fill="black"/>
<path d="M196.667 34.1667V29.1667C196.667 28.25 195.917 27.5 195 27.5H185.833V25.8333L183.333 28.3333L185.833 30.8333V29.1667H189.167V31.6667H183.333V34.1667C183.333 35.0833 184.083 35.8333 185 35.8333H186.667C186.667 37.2167 187.783 38.3333 189.167 38.3333C190.55 38.3333 191.667 37.2167 191.667 35.8333H198.333V34.1667H196.667ZM189.167 36.6667C188.708 36.6667 188.333 36.2917 188.333 35.8333C188.333 35.375 188.708 35 189.167 35C189.625 35 190 35.375 190 35.8333C190 36.2917 189.625 36.6667 189.167 36.6667ZM195 31.6667H191.667V29.1667H195V31.6667ZM194.167 21.6667V23.3333H187.5V25H194.167V26.6667L196.667 24.1667L194.167 21.6667Z" fill="black"/>
<path d="M300 10.6667H302.222V8.44444H300V10.6667ZM300 15.1111H302.222V12.8889H300V15.1111ZM300 6.22222H302.222V4H300V6.22222ZM304.444 10.6667H320V8.44444H304.444V10.6667ZM304.444 15.1111H320V12.8889H304.444V15.1111ZM304.444 4V6.22222H320V4H304.444ZM300 10.6667H302.222V8.44444H300V10.6667ZM300 15.1111H302.222V12.8889H300V15.1111ZM300 6.22222H302.222V4H300V6.22222ZM304.444 10.6667H320V8.44444H304.444V10.6667ZM304.444 15.1111H320V12.8889H304.444V15.1111ZM304.444 4V6.22222H320V4H304.444Z" fill="#808080"/>
<path d="M300 30.6667H302.222V28.4444H300V30.6667ZM300 35.1111H302.222V32.8889H300V35.1111ZM300 26.2222H302.222V24H300V26.2222ZM304.444 30.6667H320V28.4444H304.444V30.6667ZM304.444 35.1111H320V32.8889H304.444V35.1111ZM304.444 24V26.2222H320V24H304.444ZM300 30.6667H302.222V28.4444H300V30.6667ZM300 35.1111H302.222V32.8889H300V35.1111ZM300 26.2222H302.222V24H300V26.2222ZM304.444 30.6667H320V28.4444H304.444V30.6667ZM304.444 35.1111H320V32.8889H304.444V35.1111ZM304.444 24V26.2222H320V24H304.444Z" fill="black"/>
<path d="M226.175 7.15833L230 10.975L233.825 7.15833L235 8.33332L230.707 12.6262C230.317 13.0167 229.683 13.0167 229.293 12.6262L225 8.33332L226.175 7.15833Z" fill="#B3B3B3"/>
<path d="M226.175 27.1583L230 30.975L233.825 27.1583L235 28.3333L230.707 32.6262C230.317 33.0167 229.683 33.0167 229.293 32.6262L225 28.3333L226.175 27.1583Z" fill="#666666"/>
<path d="M215.833 5.83333H209.167V10.8333H215.833V5.83333ZM214.167 9.16667H210.833V7.5H214.167V9.16667ZM217.5 2.5H202.5C201.583 2.5 200.833 3.25 200.833 4.16667V15.8333C200.833 16.75 201.583 17.4833 202.5 17.4833H217.5C218.417 17.4833 219.167 16.75 219.167 15.8333V4.16667C219.167 3.25 218.417 2.5 217.5 2.5ZM217.5 15.8417H202.5V4.15H217.5V15.8417Z" fill="#666666"/>
<path d="M215.833 25.8333H209.167V30.8333H215.833V25.8333ZM214.167 29.1667H210.833V27.5H214.167V29.1667ZM217.5 22.5H202.5C201.583 22.5 200.833 23.25 200.833 24.1667V35.8333C200.833 36.75 201.583 37.4833 202.5 37.4833H217.5C218.417 37.4833 219.167 36.75 219.167 35.8333V24.1667C219.167 23.25 218.417 22.5 217.5 22.5ZM217.5 35.8417H202.5V24.15H217.5V35.8417Z" fill="black"/>
<path d="M346.175 33.3333L350 29.5166L353.825 33.3333L355 32.1583L350.707 27.8654C350.317 27.4749 349.683 27.4749 349.293 27.8654L345 32.1583L346.175 33.3333Z" fill="black"/>
<path d="M297 4.41L295.59 3L290 8.59L284.41 3L283 4.41L288.59 10L283 15.59L284.41 17L290 11.41L295.59 17L297 15.59L291.41 10L297 4.41Z" fill="#808080"/>
<path d="M264 17C264 18.1 264.9 19 266 19H274C275.1 19 276 18.1 276 17V5H264V17ZM266 7H274V17H266V7ZM273.5 2L272.5 1H267.5L266.5 2H263V4H277V2H273.5Z" fill="#808080"/>
<path d="M254.679 1H243.855C242.826 1 242 2.45335 242 3.47384V16.4619C242 17.4824 242.826 19 243.855 19H256.843C257.864 19 258.699 17.4824 258.699 16.4619V5.32927L254.679 1ZM256.843 17.0804H243.855V2.85544H254.06L256.843 6.09928V17.0804ZM250.349 9.5675C248.809 9.5675 247.566 10.8106 247.566 12.3507C247.566 13.8907 248.809 15.1338 250.349 15.1338C251.889 15.1338 253.133 13.8907 253.133 12.3507C253.133 10.8106 251.889 9.5675 250.349 9.5675ZM245.402 5.02003H253.133V7.18478H245.402V5.02003Z" fill="#808080"/>
<path d="M297 24.41L295.59 23L290 28.59L284.41 23L283 24.41L288.59 30L283 35.59L284.41 37L290 31.41L295.59 37L297 35.59L291.41 30L297 24.41Z" fill="black"/>
<path d="M264 37C264 38.1 264.9 39 266 39H274C275.1 39 276 38.1 276 37V25H264V37ZM266 27H274V37H266V27ZM273.5 22L272.5 21H267.5L266.5 22H263V24H277V22H273.5Z" fill="black"/>
<path d="M254.679 21H243.855C242.826 21 242 22.4533 242 23.4738V36.4619C242 37.4824 242.826 39 243.855 39H256.843C257.864 39 258.699 37.4824 258.699 36.4619V25.3293L254.679 21ZM256.843 37.0804H243.855V22.8554H254.06L256.843 26.0993V37.0804ZM250.349 29.5675C248.809 29.5675 247.566 30.8106 247.566 32.3507C247.566 33.8907 248.809 35.1338 250.349 35.1338C251.889 35.1338 253.133 33.8907 253.133 32.3507C253.133 30.8106 251.889 29.5675 250.349 29.5675ZM245.402 25.02H253.133V27.1848H245.402V25.02Z" fill="black"/>
<path d="M372.842 33.825L369.025 30L372.842 26.175L371.667 25L367.374 29.2929C366.983 29.6834 366.983 30.3166 367.374 30.7071L371.667 35L372.842 33.825Z" fill="black"/>
<path d="M327.158 13.825L330.975 10L327.158 6.175L328.333 5L332.626 9.29289C333.017 9.68342 333.017 10.3166 332.626 10.7071L328.333 15L327.158 13.825Z" fill="#B3B3B3"/>
<path d="M327.158 33.825L330.975 30L327.158 26.175L328.333 25L332.626 29.2929C333.017 29.6834 333.017 30.3166 332.626 30.7071L328.333 35L327.158 33.825Z" fill="black"/>
<path d="M14.7727 47.25L12.0455 50H14.0909C14.0909 52.2756 12.2568 54.125 10 54.125C9.31136 54.125 8.65682 53.9531 8.09091 53.6437L7.09545 54.6475C7.93409 55.1838 8.92955 55.5 10 55.5C13.0136 55.5 15.4545 53.0388 15.4545 50H17.5L14.7727 47.25ZM5.90909 50C5.90909 47.7244 7.74318 45.875 10 45.875C10.6886 45.875 11.3432 46.0469 11.9091 46.3562L12.9045 45.3525C12.0659 44.8162 11.0705 44.5 10 44.5C6.98636 44.5 4.54545 46.9612 4.54545 50H2.5L5.22727 52.75L7.95455 50H5.90909Z" fill="white"/>
<path d="M35.8333 44H35V42.5H33.3333V44H26.6667V42.5H25V44H24.1667C23.2417 44 22.5083 44.675 22.5083 45.5L22.5 56C22.5 56.825 23.2417 57.5 24.1667 57.5H35.8333C36.75 57.5 37.5 56.825 37.5 56V45.5C37.5 44.675 36.75 44 35.8333 44ZM35.8333 56H24.1667V48.5H35.8333V56ZM35.8333 47H24.1667V45.5H35.8333V47ZM30 50.75H34.1667V54.5H30V50.75Z" fill="white"/>
<path d="M49.8546 52.7348C49.9335 52.8184 50.0665 52.8184 50.1454 52.7348L52.7273 50H50.6818V43.5H49.3182V50H47.2727L49.8546 52.7348ZM56.1364 43.5H52.0455V44.9372H56.1364V55.07H43.8636V44.9372H47.9545V43.5H43.8636C43.1136 43.5 42.5 44.15 42.5 44.9444V55.0556C42.5 55.85 43.1136 56.5 43.8636 56.5H56.1364C56.8864 56.5 57.5 55.85 57.5 55.0556V44.9444C57.5 44.15 56.8864 43.5 56.1364 43.5ZM49.8546 52.7348C49.9335 52.8184 50.0665 52.8184 50.1454 52.7348L52.7273 50H50.6818V43.5H49.3182V50H47.2727L49.8546 52.7348ZM56.1364 43.5H52.0455V44.9372H56.1364V55.07H43.8636V44.9372H47.9545V43.5H43.8636C43.1136 43.5 42.5 44.15 42.5 44.9444V55.0556C42.5 55.85 43.1136 56.5 43.8636 56.5H56.1364C56.8864 56.5 57.5 55.85 57.5 55.0556V44.9444C57.5 44.15 56.8864 43.5 56.1364 43.5Z" fill="white"/>
</svg>
