<svg width="771" height="102" viewBox="0 0 771 102" fill="none" xmlns="http://www.w3.org/2000/svg">
<path d="M14.1666 0.841646L5.83331 0.833313C4.91664 0.833313 4.17497 1.58331 4.17497 2.49998V17.5C4.17497 18.4166 4.91664 19.1666 5.83331 19.1666H14.1666C15.0833 19.1666 15.8333 18.4166 15.8333 17.5V2.49998C15.8333 1.58331 15.0833 0.841646 14.1666 0.841646ZM14.1666 15.8333H5.83331V4.16665H14.1666V15.8333Z" fill="#666666"/>
<path d="M14.1666 20.8416L5.83331 20.8333C4.91664 20.8333 4.17497 21.5833 4.17497 22.5V37.5C4.17497 38.4166 4.91664 39.1666 5.83331 39.1666H14.1666C15.0833 39.1666 15.8333 38.4166 15.8333 37.5V22.5C15.8333 21.5833 15.0833 20.8416 14.1666 20.8416ZM14.1666 35.8333H5.83331V24.1666H14.1666V35.8333Z" fill="black"/>
<path d="M36.6667 6.66668H34.1667V3.33334H22.5C21.5833 3.33334 20.8333 4.08334 20.8333 5.00001V14.1667H22.5C22.5 15.55 23.6167 16.6667 25 16.6667C26.3833 16.6667 27.5 15.55 27.5 14.1667H32.5C32.5 15.55 33.6167 16.6667 35 16.6667C36.3833 16.6667 37.5 15.55 37.5 14.1667H39.1667V10L36.6667 6.66668ZM36.25 7.91668L37.8833 10H34.1667V7.91668H36.25ZM25 15C24.5417 15 24.1667 14.625 24.1667 14.1667C24.1667 13.7083 24.5417 13.3333 25 13.3333C25.4583 13.3333 25.8333 13.7083 25.8333 14.1667C25.8333 14.625 25.4583 15 25 15ZM26.85 12.5C26.3917 11.9917 25.7417 11.6667 25 11.6667C24.2583 11.6667 23.6083 11.9917 23.15 12.5H22.5V5.00001H32.5V12.5H26.85ZM35 15C34.5417 15 34.1667 14.625 34.1667 14.1667C34.1667 13.7083 34.5417 13.3333 35 13.3333C35.4583 13.3333 35.8333 13.7083 35.8333 14.1667C35.8333 14.625 35.4583 15 35 15Z" fill="#666666"/>
<path d="M59.4635 4.25636C59.4635 4.00263 59.3103 3.77401 59.0756 3.67757L50.2378 0.0469287C50.0854 -0.0156429 49.9146 -0.0156429 49.7623 0.0469287L40.9245 3.67757C40.6898 3.77397 40.5365 4.00263 40.5365 4.25636V15.7436C40.5365 15.9974 40.6898 16.226 40.9245 16.3224L49.7623 19.9531C49.913 20.015 50.0824 20.0163 50.237 19.953C50.2446 19.9505 49.91 20.0878 59.0756 16.3224C59.3103 16.226 59.4635 15.9974 59.4635 15.7436V4.25636ZM50 7.26316L46.7436 5.92541L53.781 2.85546L57.2552 4.28268L50 7.26316ZM41.788 5.24248L44.5975 6.39666V9.65288C44.5975 9.99844 44.8776 10.2786 45.2232 10.2786C45.5687 10.2786 45.8489 9.99844 45.8489 9.65288V6.91076L49.3743 8.35902V18.4408L41.788 15.3242V5.24248ZM50 1.30215L52.1692 2.19325L45.1318 5.26321L42.7449 4.28264L50 1.30215ZM50.6257 8.35902L58.2121 5.24248V15.3242L50.6257 18.4408V8.35902Z" fill="#666666"/>
<path d="M63 12.5714H61V19H67.4286V17H63V12.5714ZM61 7.42857H63V3H67.4286V1H61V7.42857ZM77 17H72.5714V19H79V12.5714H77V17ZM72.5714 1V3H77V7.42857H79V1H72.5714Z" fill="#666666"/>
<rect x="65" y="9.5" width="10" height="1" fill="#666666"/>
<rect x="67" y="12" width="6" height="1" fill="#666666"/>
<rect x="67" y="7" width="6" height="1" fill="#666666"/>
<path d="M90 5.00001C90.9167 5.00001 91.6667 5.75001 91.6667 6.66668C91.6667 7.58334 90.9167 8.33334 90 8.33334C89.0833 8.33334 88.3333 7.58334 88.3333 6.66668C88.3333 5.75001 89.0833 5.00001 90 5.00001ZM90 12.5C92.25 12.5 94.8333 13.575 95 14.1667V15H85V14.175C85.1667 13.575 87.75 12.5 90 12.5ZM90 3.33334C88.1583 3.33334 86.6667 4.82501 86.6667 6.66668C86.6667 8.50834 88.1583 10 90 10C91.8417 10 93.3333 8.50834 93.3333 6.66668C93.3333 4.82501 91.8417 3.33334 90 3.33334ZM90 10.8333C87.775 10.8333 83.3333 11.95 83.3333 14.1667V16.6667H96.6667V14.1667C96.6667 11.95 92.225 10.8333 90 10.8333Z" fill="#666666"/>
<path d="M111.667 1.66666H105C104.083 1.66666 103.342 2.41666 103.342 3.33332L103.333 16.6667C103.333 17.5833 104.075 18.3333 104.992 18.3333H115C115.917 18.3333 116.667 17.5833 116.667 16.6667V6.66666L111.667 1.66666ZM105 16.6667V3.33332H110.833V7.49999H115V16.6667H105Z" fill="#666666"/>
<path d="M138.333 5.00001C138.333 4.08334 137.583 3.33334 136.667 3.33334H123.333C122.417 3.33334 121.667 4.08334 121.667 5.00001V15C121.667 15.9167 122.417 16.6667 123.333 16.6667H136.667C137.583 16.6667 138.333 15.9167 138.333 15V5.00001ZM136.667 5.00001L130 9.15834L123.333 5.00001H136.667ZM136.667 15H123.333V6.66668L130 10.8333L136.667 6.66668V15Z" fill="#666666"/>
<path d="M560 27.816H540V23.793C540 23.6026 540.154 23.4482 540.345 23.4482H559.655C559.846 23.4482 560 23.6026 560 23.793L560 27.816Z" fill="#FF4B55"/>
<path d="M559.655 36.5517H540.345C540.154 36.5517 540 36.3973 540 36.2069V32.1839H560V36.2069C560 36.3973 559.846 36.5517 559.655 36.5517Z" fill="#41479B"/>
<path d="M560 27.8159H540V32.1835H560V27.8159Z" fill="#F5F5F5"/>
<path d="M147.333 2.66666L144 5.99166H146.5V11.8333H148.167V5.99166H150.667L147.333 2.66666ZM153.167 14.3417V8.49999H151.5V14.3417H149L152.333 17.6667L155.667 14.3417H153.167Z" fill="#666666"/>
<path d="M170 18.3333C170.917 18.3333 171.667 17.5833 171.667 16.6667H168.333C168.333 17.5833 169.083 18.3333 170 18.3333ZM175 13.3333V9.16668C175 6.60834 173.642 4.46668 171.25 3.90001V3.33334C171.25 2.64168 170.692 2.08334 170 2.08334C169.308 2.08334 168.75 2.64168 168.75 3.33334V3.90001C166.367 4.46668 165 6.60001 165 9.16668V13.3333L163.333 15V15.8333H176.667V15L175 13.3333ZM173.333 14.1667H166.667V9.16668C166.667 7.10001 167.925 5.41668 170 5.41668C172.075 5.41668 173.333 7.10001 173.333 9.16668V14.1667Z" fill="#666666"/>
<path d="M196.667 14.1667V9.16666C196.667 8.24999 195.917 7.49999 195 7.49999H185.833V5.83332L183.333 8.33332L185.833 10.8333V9.16666H189.167V11.6667H183.333V14.1667C183.333 15.0833 184.083 15.8333 185 15.8333H186.667C186.667 17.2167 187.783 18.3333 189.167 18.3333C190.55 18.3333 191.667 17.2167 191.667 15.8333H198.333V14.1667H196.667ZM189.167 16.6667C188.708 16.6667 188.333 16.2917 188.333 15.8333C188.333 15.375 188.708 15 189.167 15C189.625 15 190 15.375 190 15.8333C190 16.2917 189.625 16.6667 189.167 16.6667ZM195 11.6667H191.667V9.16666H195V11.6667ZM194.167 1.66666V3.33332H187.5V4.99999H194.167V6.66666L196.667 4.16666L194.167 1.66666Z" fill="#666666"/>
<path d="M36.6667 26.6667H34.1667V23.3333H22.5C21.5833 23.3333 20.8333 24.0833 20.8333 25V34.1667H22.5C22.5 35.55 23.6167 36.6667 25 36.6667C26.3833 36.6667 27.5 35.55 27.5 34.1667H32.5C32.5 35.55 33.6167 36.6667 35 36.6667C36.3833 36.6667 37.5 35.55 37.5 34.1667H39.1667V30L36.6667 26.6667ZM36.25 27.9167L37.8833 30H34.1667V27.9167H36.25ZM25 35C24.5417 35 24.1667 34.625 24.1667 34.1667C24.1667 33.7083 24.5417 33.3333 25 33.3333C25.4583 33.3333 25.8333 33.7083 25.8333 34.1667C25.8333 34.625 25.4583 35 25 35ZM26.85 32.5C26.3917 31.9917 25.7417 31.6667 25 31.6667C24.2583 31.6667 23.6083 31.9917 23.15 32.5H22.5V25H32.5V32.5H26.85ZM35 35C34.5417 35 34.1667 34.625 34.1667 34.1667C34.1667 33.7083 34.5417 33.3333 35 33.3333C35.4583 33.3333 35.8333 33.7083 35.8333 34.1667C35.8333 34.625 35.4583 35 35 35Z" fill="black"/>
<path d="M59.4635 24.2564C59.4635 24.0026 59.3103 23.774 59.0756 23.6776L50.2378 20.0469C50.0854 19.9844 49.9146 19.9844 49.7623 20.0469L40.9245 23.6776C40.6898 23.774 40.5365 24.0026 40.5365 24.2564V35.7436C40.5365 35.9974 40.6898 36.226 40.9245 36.3224L49.7623 39.9531C49.913 40.015 50.0824 40.0163 50.237 39.953C50.2446 39.9505 49.91 40.0878 59.0756 36.3224C59.3103 36.226 59.4635 35.9974 59.4635 35.7436V24.2564ZM50 27.2632L46.7436 25.9254L53.781 22.8555L57.2552 24.2827L50 27.2632ZM41.788 25.2425L44.5975 26.3967V29.6529C44.5975 29.9984 44.8776 30.2786 45.2232 30.2786C45.5687 30.2786 45.8489 29.9984 45.8489 29.6529V26.9108L49.3743 28.359V38.4408L41.788 35.3242V25.2425ZM50 21.3022L52.1692 22.1933L45.1318 25.2632L42.7449 24.2826L50 21.3022ZM50.6257 28.359L58.2121 25.2425V35.3242L50.6257 38.4408V28.359Z" fill="black"/>
<path d="M63 32.5714H61V39H67.4286V37H63V32.5714ZM61 27.4286H63V23H67.4286V21H61V27.4286ZM77 37H72.5714V39H79V32.5714H77V37ZM72.5714 21V23H77V27.4286H79V21H72.5714Z" fill="black"/>
<rect x="65" y="29.5" width="10" height="1" fill="black"/>
<rect x="67" y="32" width="6" height="1" fill="black"/>
<rect x="67" y="27" width="6" height="1" fill="black"/>
<path d="M90 25C90.9167 25 91.6667 25.75 91.6667 26.6667C91.6667 27.5833 90.9167 28.3333 90 28.3333C89.0833 28.3333 88.3333 27.5833 88.3333 26.6667C88.3333 25.75 89.0833 25 90 25ZM90 32.5C92.25 32.5 94.8333 33.575 95 34.1667V35H85V34.175C85.1667 33.575 87.75 32.5 90 32.5ZM90 23.3333C88.1583 23.3333 86.6667 24.825 86.6667 26.6667C86.6667 28.5083 88.1583 30 90 30C91.8417 30 93.3333 28.5083 93.3333 26.6667C93.3333 24.825 91.8417 23.3333 90 23.3333ZM90 30.8333C87.775 30.8333 83.3333 31.95 83.3333 34.1667V36.6667H96.6667V34.1667C96.6667 31.95 92.225 30.8333 90 30.8333Z" fill="black"/>
<path d="M90 45C90.9167 45 91.6667 45.75 91.6667 46.6667C91.6667 47.5833 90.9167 48.3333 90 48.3333C89.0833 48.3333 88.3333 47.5833 88.3333 46.6667C88.3333 45.75 89.0833 45 90 45ZM90 52.5C92.25 52.5 94.8333 53.575 95 54.1667V55H85V54.175C85.1667 53.575 87.75 52.5 90 52.5ZM90 43.3333C88.1583 43.3333 86.6667 44.825 86.6667 46.6667C86.6667 48.5083 88.1583 50 90 50C91.8417 50 93.3333 48.5083 93.3333 46.6667C93.3333 44.825 91.8417 43.3333 90 43.3333ZM90 50.8333C87.775 50.8333 83.3333 51.95 83.3333 54.1667V56.6667H96.6667V54.1667C96.6667 51.95 92.225 50.8333 90 50.8333Z" fill="white"/>
<path d="M111.667 21.6667H105C104.083 21.6667 103.342 22.4167 103.342 23.3333L103.333 36.6667C103.333 37.5833 104.075 38.3333 104.992 38.3333H115C115.917 38.3333 116.667 37.5833 116.667 36.6667V26.6667L111.667 21.6667ZM105 36.6667V23.3333H110.833V27.5H115V36.6667H105Z" fill="black"/>
<path d="M138.333 25C138.333 24.0833 137.583 23.3333 136.667 23.3333H123.333C122.417 23.3333 121.667 24.0833 121.667 25V35C121.667 35.9167 122.417 36.6667 123.333 36.6667H136.667C137.583 36.6667 138.333 35.9167 138.333 35V25ZM136.667 25L130 29.1583L123.333 25H136.667ZM136.667 35H123.333V26.6667L130 30.8333L136.667 26.6667V35Z" fill="black"/>
<path d="M147.333 22.6667L144 25.9917H146.5V31.8333H148.167V25.9917H150.667L147.333 22.6667ZM153.167 34.3417V28.5H151.5V34.3417H149L152.333 37.6667L155.667 34.3417H153.167Z" fill="black"/>
<path d="M170 38.3333C170.917 38.3333 171.667 37.5833 171.667 36.6667H168.333C168.333 37.5833 169.083 38.3333 170 38.3333ZM175 33.3333V29.1667C175 26.6083 173.642 24.4667 171.25 23.9V23.3333C171.25 22.6417 170.692 22.0833 170 22.0833C169.308 22.0833 168.75 22.6417 168.75 23.3333V23.9C166.367 24.4667 165 26.6 165 29.1667V33.3333L163.333 35V35.8333H176.667V35L175 33.3333ZM173.333 34.1667H166.667V29.1667C166.667 27.1 167.925 25.4167 170 25.4167C172.075 25.4167 173.333 27.1 173.333 29.1667V34.1667Z" fill="black"/>
<path d="M196.667 34.1667V29.1667C196.667 28.25 195.917 27.5 195 27.5H185.833V25.8333L183.333 28.3333L185.833 30.8333V29.1667H189.167V31.6667H183.333V34.1667C183.333 35.0833 184.083 35.8333 185 35.8333H186.667C186.667 37.2167 187.783 38.3333 189.167 38.3333C190.55 38.3333 191.667 37.2167 191.667 35.8333H198.333V34.1667H196.667ZM189.167 36.6667C188.708 36.6667 188.333 36.2917 188.333 35.8333C188.333 35.375 188.708 35 189.167 35C189.625 35 190 35.375 190 35.8333C190 36.2917 189.625 36.6667 189.167 36.6667ZM195 31.6667H191.667V29.1667H195V31.6667ZM194.167 21.6667V23.3333H187.5V25H194.167V26.6667L196.667 24.1667L194.167 21.6667Z" fill="black"/>
<path d="M300 10.6667H302.222V8.44444H300V10.6667ZM300 15.1111H302.222V12.8889H300V15.1111ZM300 6.22222H302.222V4H300V6.22222ZM304.444 10.6667H320V8.44444H304.444V10.6667ZM304.444 15.1111H320V12.8889H304.444V15.1111ZM304.444 4V6.22222H320V4H304.444ZM300 10.6667H302.222V8.44444H300V10.6667ZM300 15.1111H302.222V12.8889H300V15.1111ZM300 6.22222H302.222V4H300V6.22222ZM304.444 10.6667H320V8.44444H304.444V10.6667ZM304.444 15.1111H320V12.8889H304.444V15.1111ZM304.444 4V6.22222H320V4H304.444Z" fill="#808080"/>
<path d="M300 30.6667H302.222V28.4444H300V30.6667ZM300 35.1111H302.222V32.8889H300V35.1111ZM300 26.2222H302.222V24H300V26.2222ZM304.444 30.6667H320V28.4444H304.444V30.6667ZM304.444 35.1111H320V32.8889H304.444V35.1111ZM304.444 24V26.2222H320V24H304.444ZM300 30.6667H302.222V28.4444H300V30.6667ZM300 35.1111H302.222V32.8889H300V35.1111ZM300 26.2222H302.222V24H300V26.2222ZM304.444 30.6667H320V28.4444H304.444V30.6667ZM304.444 35.1111H320V32.8889H304.444V35.1111ZM304.444 24V26.2222H320V24H304.444Z" fill="black"/>
<path d="M226.175 7.15833L230 10.975L233.825 7.15833L235 8.33332L230.707 12.6262C230.317 13.0167 229.683 13.0167 229.293 12.6262L225 8.33332L226.175 7.15833Z" fill="#B3B3B3"/>
<path d="M226.175 27.1583L230 30.975L233.825 27.1583L235 28.3333L230.707 32.6262C230.317 33.0167 229.683 33.0167 229.293 32.6262L225 28.3333L226.175 27.1583Z" fill="#666666"/>
<path d="M215.833 5.83333H209.167V10.8333H215.833V5.83333ZM214.167 9.16667H210.833V7.5H214.167V9.16667ZM217.5 2.5H202.5C201.583 2.5 200.833 3.25 200.833 4.16667V15.8333C200.833 16.75 201.583 17.4833 202.5 17.4833H217.5C218.417 17.4833 219.167 16.75 219.167 15.8333V4.16667C219.167 3.25 218.417 2.5 217.5 2.5ZM217.5 15.8417H202.5V4.15H217.5V15.8417Z" fill="#666666"/>
<path d="M215.833 25.8333H209.167V30.8333H215.833V25.8333ZM214.167 29.1667H210.833V27.5H214.167V29.1667ZM217.5 22.5H202.5C201.583 22.5 200.833 23.25 200.833 24.1667V35.8333C200.833 36.75 201.583 37.4833 202.5 37.4833H217.5C218.417 37.4833 219.167 36.75 219.167 35.8333V24.1667C219.167 23.25 218.417 22.5 217.5 22.5ZM217.5 35.8417H202.5V24.15H217.5V35.8417Z" fill="black"/>
<path d="M346.175 33.3333L350 29.5166L353.825 33.3333L355 32.1583L350.707 27.8654C350.317 27.4749 349.683 27.4749 349.293 27.8654L345 32.1583L346.175 33.3333Z" fill="black"/>
<path d="M297 4.41L295.59 3L290 8.59L284.41 3L283 4.41L288.59 10L283 15.59L284.41 17L290 11.41L295.59 17L297 15.59L291.41 10L297 4.41Z" fill="#808080"/>
<path d="M264 17C264 18.1 264.9 19 266 19H274C275.1 19 276 18.1 276 17V5H264V17ZM266 7H274V17H266V7ZM273.5 2L272.5 1H267.5L266.5 2H263V4H277V2H273.5Z" fill="#808080"/>
<path d="M254.679 1H243.855C242.826 1 242 2.45335 242 3.47384V16.4619C242 17.4824 242.826 19 243.855 19H256.843C257.864 19 258.699 17.4824 258.699 16.4619V5.32927L254.679 1ZM256.843 17.0804H243.855V2.85544H254.06L256.843 6.09928V17.0804ZM250.349 9.5675C248.809 9.5675 247.566 10.8106 247.566 12.3507C247.566 13.8907 248.809 15.1338 250.349 15.1338C251.889 15.1338 253.133 13.8907 253.133 12.3507C253.133 10.8106 251.889 9.5675 250.349 9.5675ZM245.402 5.02003H253.133V7.18478H245.402V5.02003Z" fill="#808080"/>
<path d="M297 24.41L295.59 23L290 28.59L284.41 23L283 24.41L288.59 30L283 35.59L284.41 37L290 31.41L295.59 37L297 35.59L291.41 30L297 24.41Z" fill="black"/>
<path d="M264 37C264 38.1 264.9 39 266 39H274C275.1 39 276 38.1 276 37V25H264V37ZM266 27H274V37H266V27ZM273.5 22L272.5 21H267.5L266.5 22H263V24H277V22H273.5Z" fill="black"/>
<path d="M254.679 21H243.855C242.826 21 242 22.4533 242 23.4738V36.4619C242 37.4824 242.826 39 243.855 39H256.843C257.864 39 258.699 37.4824 258.699 36.4619V25.3293L254.679 21ZM256.843 37.0804H243.855V22.8554H254.06L256.843 26.0993V37.0804ZM250.349 29.5675C248.809 29.5675 247.566 30.8106 247.566 32.3507C247.566 33.8907 248.809 35.1338 250.349 35.1338C251.889 35.1338 253.133 33.8907 253.133 32.3507C253.133 30.8106 251.889 29.5675 250.349 29.5675ZM245.402 25.02H253.133V27.1848H245.402V25.02Z" fill="black"/>
<path d="M372.842 33.825L369.025 30L372.842 26.175L371.667 25L367.374 29.2929C366.983 29.6834 366.983 30.3166 367.374 30.7071L371.667 35L372.842 33.825Z" fill="black"/>
<path d="M327.158 13.825L330.975 10L327.158 6.175L328.333 5L332.626 9.29289C333.017 9.68342 333.017 10.3166 332.626 10.7071L328.333 15L327.158 13.825Z" fill="#B3B3B3"/>
<path d="M327.158 33.825L330.975 30L327.158 26.175L328.333 25L332.626 29.2929C333.017 29.6834 333.017 30.3166 332.626 30.7071L328.333 35L327.158 33.825Z" fill="black"/>
<path d="M14.7727 47.25L12.0455 50H14.0909C14.0909 52.2756 12.2568 54.125 10 54.125C9.31136 54.125 8.65682 53.9531 8.09091 53.6437L7.09545 54.6475C7.93409 55.1838 8.92955 55.5 10 55.5C13.0136 55.5 15.4545 53.0387 15.4545 50H17.5L14.7727 47.25ZM5.90909 50C5.90909 47.7244 7.74318 45.875 10 45.875C10.6886 45.875 11.3432 46.0469 11.9091 46.3562L12.9045 45.3525C12.0659 44.8162 11.0705 44.5 10 44.5C6.98636 44.5 4.54545 46.9612 4.54545 50H2.5L5.22727 52.75L7.95455 50H5.90909Z" fill="white"/>
<path d="M35.8333 44H35V42.5H33.3333V44H26.6667V42.5H25V44H24.1667C23.2417 44 22.5083 44.675 22.5083 45.5L22.5 56C22.5 56.825 23.2417 57.5 24.1667 57.5H35.8333C36.75 57.5 37.5 56.825 37.5 56V45.5C37.5 44.675 36.75 44 35.8333 44ZM35.8333 56H24.1667V48.5H35.8333V56ZM35.8333 47H24.1667V45.5H35.8333V47ZM30 50.75H34.1667V54.5H30V50.75Z" fill="white"/>
<path d="M49.8546 52.7348C49.9335 52.8184 50.0665 52.8184 50.1454 52.7348L52.7273 50H50.6818V43.5H49.3182V50H47.2727L49.8546 52.7348ZM56.1364 43.5H52.0455V44.9372H56.1364V55.07H43.8636V44.9372H47.9545V43.5H43.8636C43.1136 43.5 42.5 44.15 42.5 44.9444V55.0556C42.5 55.85 43.1136 56.5 43.8636 56.5H56.1364C56.8864 56.5 57.5 55.85 57.5 55.0556V44.9444C57.5 44.15 56.8864 43.5 56.1364 43.5ZM49.8546 52.7348C49.9335 52.8184 50.0665 52.8184 50.1454 52.7348L52.7273 50H50.6818V43.5H49.3182V50H47.2727L49.8546 52.7348ZM56.1364 43.5H52.0455V44.9372H56.1364V55.07H43.8636V44.9372H47.9545V43.5H43.8636C43.1136 43.5 42.5 44.15 42.5 44.9444V55.0556C42.5 55.85 43.1136 56.5 43.8636 56.5H56.1364C56.8864 56.5 57.5 55.85 57.5 55.0556V44.9444C57.5 44.15 56.8864 43.5 56.1364 43.5Z" fill="white"/>
<path d="M389.8 5.6C392.832 5.6 395.536 7.304 396.856 10C395.536 12.696 392.832 14.4 389.8 14.4C386.768 14.4 384.064 12.696 382.744 10C384.064 7.304 386.768 5.6 389.8 5.6ZM389.8 4C385.8 4 382.384 6.488 381 10C382.384 13.512 385.8 16 389.8 16C393.8 16 397.216 13.512 398.6 10C397.216 6.488 393.8 4 389.8 4ZM389.8 8C390.904 8 391.8 8.896 391.8 10C391.8 11.104 390.904 12 389.8 12C388.696 12 387.8 11.104 387.8 10C387.8 8.896 388.696 8 389.8 8ZM389.8 6.4C387.816 6.4 386.2 8.016 386.2 10C386.2 11.984 387.816 13.6 389.8 13.6C391.784 13.6 393.4 11.984 393.4 10C393.4 8.016 391.784 6.4 389.8 6.4Z" fill="#9097AD"/>
<path d="M411.372 8.01278L411.986 8.62602L405.946 14.6652H405.333V14.0519L411.372 8.01278ZM413.772 4C413.605 4 413.432 4.06666 413.305 4.19331L412.086 5.41314L414.585 7.91279L415.805 6.69296C416.065 6.433 416.065 6.01305 415.805 5.75309L414.245 4.19331C414.112 4.05999 413.945 4 413.772 4ZM411.372 6.12637L404 13.4987V15.9983H406.5L413.872 8.62602L411.372 6.12637Z" fill="#9097AD"/>
<path d="M445.714 14.6667C445.714 15.4 446.357 16 447.143 16H452.857C453.643 16 454.286 15.4 454.286 14.6667V6.66667H445.714V14.6667ZM447.143 8H452.857V14.6667H447.143V8ZM452.5 4.66667L451.786 4H448.214L447.5 4.66667H445V6H455V4.66667H452.5Z" fill="#9097AD"/>
<path d="M389.8 25.6C392.832 25.6 395.536 27.304 396.856 30C395.536 32.696 392.832 34.4 389.8 34.4C386.768 34.4 384.064 32.696 382.744 30C384.064 27.304 386.768 25.6 389.8 25.6ZM389.8 24C385.8 24 382.384 26.488 381 30C382.384 33.512 385.8 36 389.8 36C393.8 36 397.216 33.512 398.6 30C397.216 26.488 393.8 24 389.8 24ZM389.8 28C390.904 28 391.8 28.896 391.8 30C391.8 31.104 390.904 32 389.8 32C388.696 32 387.8 31.104 387.8 30C387.8 28.896 388.696 28 389.8 28ZM389.8 26.4C387.816 26.4 386.2 28.016 386.2 30C386.2 31.984 387.816 33.6 389.8 33.6C391.784 33.6 393.4 31.984 393.4 30C393.4 28.016 391.784 26.4 389.8 26.4Z" fill="#9097AD" fill-opacity="0.5"/>
<path d="M411.372 28.0128L411.986 28.626L405.946 34.6652H405.333V34.0519L411.372 28.0128ZM413.772 24C413.605 24 413.432 24.0667 413.305 24.1933L412.086 25.4131L414.585 27.9128L415.805 26.693C416.065 26.433 416.065 26.0131 415.805 25.7531L414.245 24.1933C414.112 24.06 413.945 24 413.772 24ZM411.372 26.1264L404 33.4987V35.9983H406.5L413.872 28.626L411.372 26.1264Z" fill="#9097AD" fill-opacity="0.5"/>
<path d="M435.693 5.48667L434.767 4.36667C434.587 4.14 434.313 4 434 4H426C425.687 4 425.413 4.14 425.227 4.36667L424.307 5.48667C424.113 5.71333 424 6.01333 424 6.33333V14.6667C424 15.4 424.6 16 425.333 16H434.667C435.4 16 436 15.4 436 14.6667V6.33333C436 6.01333 435.887 5.71333 435.693 5.48667ZM426.16 5.33333H433.84L434.38 5.98H425.627L426.16 5.33333ZM425.333 14.6667V7.33333H434.667V14.6667H425.333ZM430.967 8.66667H429.033V10.6667H427.333L430 13.3333L432.667 10.6667H430.967V8.66667Z" fill="#9097AD"/>
<path d="M389.8 45.6C392.832 45.6 395.536 47.304 396.856 50C395.536 52.696 392.832 54.4 389.8 54.4C386.768 54.4 384.064 52.696 382.744 50C384.064 47.304 386.768 45.6 389.8 45.6ZM389.8 44C385.8 44 382.384 46.488 381 50C382.384 53.512 385.8 56 389.8 56C393.8 56 397.216 53.512 398.6 50C397.216 46.488 393.8 44 389.8 44ZM389.8 48C390.904 48 391.8 48.896 391.8 50C391.8 51.104 390.904 52 389.8 52C388.696 52 387.8 51.104 387.8 50C387.8 48.896 388.696 48 389.8 48ZM389.8 46.4C387.816 46.4 386.2 48.016 386.2 50C386.2 51.984 387.816 53.6 389.8 53.6C391.784 53.6 393.4 51.984 393.4 50C393.4 48.016 391.784 46.4 389.8 46.4Z" fill="#689CD3"/>
<path d="M411.372 48.0128L411.986 48.626L405.946 54.6652H405.333V54.0519L411.372 48.0128ZM413.772 44C413.605 44 413.432 44.0667 413.305 44.1933L412.086 45.4131L414.585 47.9128L415.805 46.693C416.065 46.433 416.065 46.0131 415.805 45.7531L414.245 44.1933C414.112 44.06 413.945 44 413.772 44ZM411.372 46.1264L404 53.4987V55.9983H406.5L413.872 48.626L411.372 46.1264Z" fill="#689CD3"/>
<path d="M445.714 54.6667C445.714 55.4 446.357 56 447.143 56H452.857C453.643 56 454.286 55.4 454.286 54.6667V46.6667H445.714V54.6667ZM447.143 48H452.857V54.6667H447.143V48ZM452.5 44.6667L451.786 44H448.214L447.5 44.6667H445V46H455V44.6667H452.5Z" fill="#689CD3"/>
<path d="M435.693 45.4867L434.767 44.3667C434.587 44.14 434.313 44 434 44H426C425.687 44 425.413 44.14 425.227 44.3667L424.307 45.4867C424.113 45.7133 424 46.0133 424 46.3333V54.6667C424 55.4 424.6 56 425.333 56H434.667C435.4 56 436 55.4 436 54.6667V46.3333C436 46.0133 435.887 45.7133 435.693 45.4867ZM426.16 45.3333H433.84L434.38 45.98H425.627L426.16 45.3333ZM425.333 54.6667V47.3333H434.667V54.6667H425.333ZM430.967 48.6667H429.033V50.6667H427.333L430 53.3333L432.667 50.6667H430.967V48.6667Z" fill="#689CD3"/>
<path d="M347.158 13.825L350.975 10L347.158 6.175L348.333 5L352.626 9.29289C353.017 9.68342 353.017 10.3166 352.626 10.7071L348.333 15L347.158 13.825Z" fill="#666666"/>
<path d="M490 5.00001C490.917 5.00001 491.667 5.75001 491.667 6.66668C491.667 7.58334 490.917 8.33334 490 8.33334C489.083 8.33334 488.333 7.58334 488.333 6.66668C488.333 5.75001 489.083 5.00001 490 5.00001ZM490 12.5C492.25 12.5 494.833 13.575 495 14.1667V15H485V14.175C485.167 13.575 487.75 12.5 490 12.5ZM490 3.33334C488.158 3.33334 486.667 4.82501 486.667 6.66668C486.667 8.50834 488.158 10 490 10C491.842 10 493.333 8.50834 493.333 6.66668C493.333 4.82501 491.842 3.33334 490 3.33334ZM490 10.8333C487.775 10.8333 483.333 11.95 483.333 14.1667V16.6667H496.667V14.1667C496.667 11.95 492.225 10.8333 490 10.8333Z" fill="#3F3F57" fill-opacity="0.8"/>
<path d="M490 25C490.917 25 491.667 25.75 491.667 26.6667C491.667 27.5833 490.917 28.3333 490 28.3333C489.083 28.3333 488.333 27.5833 488.333 26.6667C488.333 25.75 489.083 25 490 25ZM490 32.5C492.25 32.5 494.833 33.575 495 34.1667V35H485V34.175C485.167 33.575 487.75 32.5 490 32.5ZM490 23.3333C488.158 23.3333 486.667 24.825 486.667 26.6667C486.667 28.5083 488.158 30 490 30C491.842 30 493.333 28.5083 493.333 26.6667C493.333 24.825 491.842 23.3333 490 23.3333ZM490 30.8333C487.775 30.8333 483.333 31.95 483.333 34.1667V36.6667H496.667V34.1667C496.667 31.95 492.225 30.8333 490 30.8333Z" fill="#3077C2" fill-opacity="0.8"/>
<path d="M470 33.8333C467.881 33.8333 466.158 32.1137 466.158 29.9999C466.158 27.8862 467.881 26.1666 470 26.1666C472.118 26.1666 473.842 27.8862 473.842 29.9999C473.842 32.1137 472.118 33.8333 470 33.8333ZM470 27.3166C468.517 27.3166 467.31 28.5203 467.31 29.9999C467.31 31.4796 468.517 32.6833 470 32.6833C471.483 32.6833 472.689 31.4796 472.689 29.9999C472.689 28.5203 471.483 27.3166 470 27.3166Z" fill="#3077C2" fill-opacity="0.8"/>
<path d="M471.278 39.2H468.722C468.107 39.2 467.564 38.7645 467.43 38.1643L467.107 36.729C466.58 36.5059 466.077 36.2146 465.605 35.8589L464.205 36.3004C463.604 36.4867 462.951 36.2322 462.649 35.6955L461.375 33.4976C461.07 32.9532 461.173 32.2831 461.622 31.8614L462.708 30.8656C462.675 30.5734 462.659 30.2837 462.659 30C462.659 29.7163 462.675 29.4265 462.707 29.1344L461.627 28.1432C461.173 27.7168 461.07 27.0468 461.372 26.5094L462.653 24.2976C462.951 23.7669 463.605 23.5148 464.202 23.698L465.605 24.1404C466.077 23.7846 466.58 23.4933 467.107 23.2701L467.431 21.8335C467.564 21.2354 468.107 20.8 468.722 20.8H471.278C471.892 20.8 472.436 21.2354 472.569 21.8357L472.893 23.271C473.42 23.494 473.923 23.7853 474.394 24.1411L475.795 23.6996C476.398 23.5148 477.049 23.7678 477.35 24.3045L478.624 26.5024C478.929 27.0468 478.826 27.7168 478.378 28.1385L477.292 29.1344C477.324 29.4265 477.34 29.7171 477.34 30C477.34 30.2829 477.324 30.5734 477.292 30.8656L478.372 31.8561C478.374 31.8576 478.375 31.8592 478.378 31.8607C478.826 32.2823 478.93 32.9525 478.628 33.4899L477.346 35.7017C477.049 36.2322 476.396 36.486 475.797 36.3004L474.393 35.8581C473.922 36.2138 473.419 36.5051 472.892 36.7283L472.568 38.165C472.436 38.7645 471.892 39.2 471.278 39.2ZM465.723 34.6452C465.855 34.6452 465.985 34.6904 466.09 34.7763C466.617 35.2095 467.193 35.5438 467.802 35.7677C467.986 35.8351 468.122 35.9907 468.165 36.1808L468.556 37.9135C468.574 37.9933 468.644 38.05 468.723 38.05H471.278C471.358 38.05 471.428 37.9933 471.444 37.9151L471.836 36.1808C471.879 35.9907 472.015 35.8351 472.199 35.7677C472.808 35.5438 473.384 35.2095 473.912 34.7763C474.062 34.6521 474.265 34.6122 474.452 34.6713L476.143 35.2042C476.224 35.2295 476.31 35.1996 476.347 35.1336L477.629 32.9217C477.667 32.8535 477.653 32.76 477.592 32.7002L476.295 31.5103C476.154 31.3815 476.086 31.1906 476.115 31.002C476.165 30.6624 476.191 30.3251 476.191 29.9993C476.191 29.6733 476.165 29.336 476.115 28.9964C476.086 28.8079 476.154 28.6177 476.295 28.4881L477.595 27.2951C477.653 27.2408 477.667 27.1456 477.625 27.0698L476.351 24.8717C476.309 24.7989 476.222 24.7698 476.142 24.7951L474.453 25.3271C474.267 25.3862 474.064 25.3464 473.913 25.2221C473.385 24.7889 472.809 24.4547 472.2 24.2308C472.016 24.1634 471.88 24.0077 471.837 23.8176L471.446 22.0849C471.427 22.0067 471.357 21.95 471.278 21.95H468.722C468.643 21.95 468.573 22.0067 468.556 22.0849L468.164 23.8192C468.121 24.0092 467.985 24.1641 467.802 24.2323C467.193 24.4562 466.617 24.7905 466.09 25.2237C465.938 25.3479 465.734 25.3869 465.549 25.3287L463.858 24.7958C463.779 24.7714 463.691 24.8004 463.654 24.8664L462.373 27.0774C462.334 27.1465 462.348 27.2415 462.412 27.3013L463.708 28.4889C463.848 28.6177 463.916 28.8086 463.887 28.9972C463.837 29.3368 463.811 29.6742 463.811 30C463.811 30.3258 463.837 30.6631 463.887 31.0027C463.916 31.1914 463.848 31.3815 463.708 31.511L462.407 32.704C462.349 32.7585 462.335 32.8535 462.377 32.9295L463.651 35.1274C463.692 35.2003 463.78 35.2286 463.86 35.2042L465.549 34.672C465.606 34.6536 465.665 34.6452 465.723 34.6452Z" fill="#3077C2" fill-opacity="0.8"/>
<path d="M470 13.8333C467.881 13.8333 466.158 12.1137 466.158 9.99994C466.158 7.88623 467.881 6.16656 470 6.16656C472.118 6.16656 473.842 7.88623 473.842 9.99994C473.842 12.1137 472.118 13.8333 470 13.8333ZM470 7.31656C468.517 7.31656 467.31 8.52033 467.31 9.99994C467.31 11.4796 468.517 12.6833 470 12.6833C471.483 12.6833 472.689 11.4796 472.689 9.99994C472.689 8.52033 471.483 7.31656 470 7.31656Z" fill="#3F3F57" fill-opacity="0.8"/>
<path d="M471.278 19.2H468.722C468.107 19.2 467.564 18.7645 467.43 18.1643L467.107 16.729C466.58 16.5059 466.077 16.2146 465.605 15.8589L464.205 16.3004C463.604 16.4867 462.951 16.2322 462.649 15.6955L461.375 13.4976C461.07 12.9532 461.173 12.2831 461.622 11.8614L462.708 10.8656C462.675 10.5734 462.659 10.2837 462.659 9.99999C462.659 9.71628 462.675 9.42653 462.707 9.1344L461.627 8.14317C461.173 7.71683 461.07 7.0468 461.372 6.50942L462.653 4.29758C462.951 3.76694 463.605 3.51481 464.202 3.69801L465.605 4.14035C466.077 3.78463 466.58 3.49333 467.107 3.27013L467.431 1.83347C467.564 1.23545 468.107 0.799988 468.722 0.799988H471.278C471.892 0.799988 472.436 1.23545 472.569 1.83572L472.893 3.27097C473.42 3.49404 473.923 3.78533 474.394 4.14105L475.795 3.69955C476.398 3.51481 477.049 3.76778 477.35 4.30446L478.624 6.5024C478.929 7.0468 478.826 7.71683 478.378 8.13854L477.292 9.1344C477.324 9.42653 477.34 9.71712 477.34 9.99999C477.34 10.2829 477.324 10.5734 477.292 10.8656L478.372 11.8561C478.374 11.8576 478.375 11.8592 478.378 11.8607C478.826 12.2823 478.93 12.9525 478.628 13.4899L477.346 15.7017C477.049 16.2322 476.396 16.486 475.797 16.3004L474.393 15.8581C473.922 16.2138 473.419 16.5051 472.892 16.7283L472.568 18.165C472.436 18.7645 471.892 19.2 471.278 19.2ZM465.723 14.6452C465.855 14.6452 465.985 14.6904 466.09 14.7763C466.617 15.2095 467.193 15.5438 467.802 15.7677C467.986 15.8351 468.122 15.9907 468.165 16.1808L468.556 17.9135C468.574 17.9933 468.644 18.05 468.723 18.05H471.278C471.358 18.05 471.428 17.9933 471.444 17.9151L471.836 16.1808C471.879 15.9907 472.015 15.8351 472.199 15.7677C472.808 15.5438 473.384 15.2095 473.912 14.7763C474.062 14.6521 474.265 14.6122 474.452 14.6713L476.143 15.2042C476.224 15.2295 476.31 15.1996 476.347 15.1336L477.629 12.9217C477.667 12.8535 477.653 12.76 477.592 12.7002L476.295 11.5103C476.154 11.3815 476.086 11.1906 476.115 11.002C476.165 10.6624 476.191 10.3251 476.191 9.99929C476.191 9.67332 476.165 9.33599 476.115 8.9964C476.086 8.80787 476.154 8.61766 476.295 8.48809L477.595 7.29513C477.653 7.2408 477.667 7.14562 477.625 7.06982L476.351 4.87173C476.309 4.79888 476.222 4.76982 476.142 4.79509L474.453 5.32713C474.267 5.38623 474.064 5.34636 473.913 5.22213C473.385 4.78891 472.809 4.45466 472.2 4.23076C472.016 4.16337 471.88 4.00769 471.837 3.81761L471.446 2.08489C471.427 2.0067 471.357 1.94999 471.278 1.94999H468.722C468.643 1.94999 468.573 2.0067 468.556 2.08489L468.164 3.81916C468.121 4.00923 467.985 4.16407 467.802 4.2323C467.193 4.45621 466.617 4.79045 466.09 5.22367C465.938 5.34791 465.734 5.38693 465.549 5.32867L463.858 4.79579C463.779 4.77136 463.691 4.80042 463.654 4.8664L462.373 7.0774C462.334 7.14647 462.348 7.2415 462.412 7.30131L463.708 8.48893C463.848 8.61766 463.916 8.80858 463.887 8.99725C463.837 9.33683 463.811 9.67416 463.811 9.99999C463.811 10.3258 463.837 10.6631 463.887 11.0027C463.916 11.1914 463.848 11.3815 463.708 11.511L462.407 12.704C462.349 12.7585 462.335 12.8535 462.377 12.9295L463.651 15.1274C463.692 15.2003 463.78 15.2286 463.86 15.2042L465.549 14.672C465.606 14.6536 465.665 14.6452 465.723 14.6452Z" fill="#3F3F57" fill-opacity="0.8"/>
<path d="M503.333 1.66666H516.667C517.583 1.66666 518.333 2.41666 518.333 3.33332V18.3333L515 15H503.333C502.417 15 501.667 14.25 501.667 13.3333V3.33332C501.667 2.41666 502.417 1.66666 503.333 1.66666ZM503.333 13.3333H515.692L516.667 14.3083V3.33332H503.333V13.3333ZM514.167 7.49999H512.5V9.16666H514.167V7.49999ZM507.5 7.49999H505.833V9.16666H507.5V7.49999ZM510.833 7.49999H509.167V9.16666H510.833V7.49999Z" fill="#3F3F57" fill-opacity="0.8"/>
<path d="M503.333 21.6667H516.667C517.583 21.6667 518.333 22.4167 518.333 23.3333V38.3333L515 35H503.333C502.417 35 501.667 34.25 501.667 33.3333V23.3333C501.667 22.4167 502.417 21.6667 503.333 21.6667ZM503.333 33.3333H515.692L516.667 34.3083V23.3333H503.333V33.3333ZM514.167 27.5H512.5V29.1667H514.167V27.5ZM507.5 27.5H505.833V29.1667H507.5V27.5ZM510.833 27.5H509.167V29.1667H510.833V27.5Z" fill="#3077C2" fill-opacity="0.8"/>
<path d="M538.83 9.72545C538.837 9.71677 538.843 9.70763 538.85 9.69873C538.858 9.68805 538.866 9.6776 538.874 9.66649C538.881 9.65584 538.887 9.64477 538.894 9.6338C538.9 9.62374 538.906 9.61394 538.911 9.60357C538.917 9.59239 538.923 9.58089 538.928 9.5695C538.933 9.55871 538.938 9.54809 538.943 9.53705C538.948 9.52598 538.951 9.51469 538.955 9.50344C538.959 9.49159 538.964 9.47989 538.968 9.46776C538.971 9.45651 538.974 9.44508 538.976 9.43373C538.98 9.42139 538.983 9.40919 538.986 9.3966C538.988 9.38342 538.99 9.37013 538.992 9.35688C538.993 9.34594 538.995 9.33515 538.996 9.32408C539.001 9.27486 539.001 9.22525 538.996 9.17603C538.995 9.16496 538.993 9.1542 538.992 9.14327C538.99 9.12998 538.988 9.11669 538.986 9.10354C538.983 9.09096 538.98 9.07879 538.976 9.06645C538.974 9.05506 538.971 9.04364 538.968 9.03239C538.964 9.0203 538.959 9.00859 538.955 8.99678C538.951 8.98553 538.948 8.97421 538.943 8.96313C538.938 8.95209 538.933 8.94147 538.928 8.93072C538.923 8.91929 538.917 8.9078 538.911 8.89662C538.906 8.88628 538.9 8.87647 538.894 8.86642C538.887 8.85545 538.881 8.84437 538.874 8.83369C538.866 8.82261 538.858 8.81217 538.85 8.80152C538.843 8.79259 538.837 8.78341 538.83 8.77473C538.815 8.75578 538.798 8.73754 538.781 8.7202C538.781 8.72006 538.781 8.71992 538.78 8.71978L536.53 6.46981C536.238 6.17692 535.763 6.17692 535.47 6.46981C535.177 6.76269 535.177 7.23758 535.47 7.53046L536.439 8.50013H534.5V1.7502C534.5 1.33599 534.164 1.00022 533.75 1.00022H521.764C521.735 0.999623 521.707 1.00071 521.679 1.00342C521.673 1.00391 521.667 1.00454 521.661 1.00518C521.655 1.00588 521.649 1.00672 521.644 1.00753C521.323 1.04747 521.113 1.26533 521.035 1.52411C521.029 1.54176 521.024 1.55976 521.02 1.57801C521.02 1.57871 521.02 1.57941 521.02 1.58012C521.015 1.59917 521.012 1.61854 521.009 1.63819C521.009 1.64002 521.008 1.64185 521.008 1.64368C521.005 1.66136 521.003 1.67919 521.002 1.69729C521 1.72443 521 1.75164 521 1.77885V16.75C521 17.1075 521.253 17.4153 521.603 17.4854L529.103 18.9854C529.567 19.0782 530 18.7233 530 18.25V17.5H533.75C534.164 17.5 534.5 17.1643 534.5 16.7501V10.0001H536.439L535.47 10.9698C535.177 11.2627 535.177 11.7376 535.47 12.0304C535.763 12.3233 536.238 12.3233 536.53 12.0304L538.78 9.78047C538.781 9.78033 538.781 9.78019 538.781 9.78005C538.798 9.76265 538.815 9.74444 538.83 9.72545ZM528.5 17.3351L522.5 16.1352V2.75819L528.5 4.55817V16.75V17.3351ZM533 16H530V4.00014C530 3.66894 529.783 3.37693 529.466 3.28177L526.86 2.50015H533V16H533Z" fill="#3F3F57" fill-opacity="0.8"/>
<path d="M527.056 11.5587L525.891 11.2675C525.579 11.1894 525.263 11.3792 525.185 11.6912C525.107 12.0033 525.296 12.3195 525.608 12.3975L526.773 12.6888C527.085 12.7668 527.402 12.577 527.48 12.265C527.558 11.9529 527.368 11.6367 527.056 11.5587Z" fill="#3F3F57" fill-opacity="0.8"/>
<path d="M560 3.33325H540V16.6667H560V3.33325Z" fill="#D80027"/>
<path d="M560 3.33325H540V7.77759H560V3.33325Z" fill="black"/>
<path d="M560 12.222H540V16.6664H560V12.222Z" fill="#FFDA44"/>
<path d="M538.83 29.7255C538.837 29.7168 538.843 29.7076 538.85 29.6987C538.858 29.688 538.866 29.6776 538.874 29.6665C538.881 29.6558 538.887 29.6448 538.894 29.6338C538.9 29.6237 538.906 29.6139 538.911 29.6036C538.917 29.5924 538.923 29.5809 538.928 29.5695C538.933 29.5587 538.938 29.5481 538.943 29.5371C538.948 29.526 538.951 29.5147 538.955 29.5034C538.959 29.4916 538.964 29.4799 538.968 29.4678C538.971 29.4565 538.974 29.4451 538.976 29.4337C538.98 29.4214 538.983 29.4092 538.986 29.3966C538.988 29.3834 538.99 29.3701 538.992 29.3569C538.993 29.3459 538.995 29.3352 538.996 29.3241C539.001 29.2749 539.001 29.2253 538.996 29.176C538.995 29.165 538.993 29.1542 538.992 29.1433C538.99 29.13 538.988 29.1167 538.986 29.1035C538.983 29.091 538.98 29.0788 538.976 29.0665C538.974 29.0551 538.971 29.0436 538.968 29.0324C538.964 29.0203 538.959 29.0086 538.955 28.9968C538.951 28.9855 538.948 28.9742 538.943 28.9631C538.938 28.9521 538.933 28.9415 538.928 28.9307C538.923 28.9193 538.917 28.9078 538.911 28.8966C538.906 28.8863 538.9 28.8765 538.894 28.8664C538.887 28.8554 538.881 28.8444 538.874 28.8337C538.866 28.8226 538.858 28.8122 538.85 28.8015C538.843 28.7926 538.837 28.7834 538.83 28.7747C538.815 28.7558 538.798 28.7375 538.781 28.7202C538.781 28.7201 538.781 28.7199 538.78 28.7198L536.53 26.4698C536.238 26.1769 535.763 26.1769 535.47 26.4698C535.177 26.7627 535.177 27.2376 535.47 27.5305L536.439 28.5001H534.5V21.7502C534.5 21.336 534.164 21.0002 533.75 21.0002H521.764C521.735 20.9996 521.707 21.0007 521.679 21.0034C521.673 21.0039 521.667 21.0045 521.661 21.0052C521.655 21.0059 521.649 21.0067 521.644 21.0075C521.323 21.0475 521.113 21.2653 521.035 21.5241C521.029 21.5418 521.024 21.5598 521.02 21.578C521.02 21.5787 521.02 21.5794 521.02 21.5801C521.015 21.5992 521.012 21.6185 521.009 21.6382C521.009 21.64 521.008 21.6419 521.008 21.6437C521.005 21.6614 521.003 21.6792 521.002 21.6973C521 21.7244 521 21.7516 521 21.7789V36.75C521 37.1075 521.253 37.4153 521.603 37.4854L529.103 38.9854C529.567 39.0782 530 38.7233 530 38.25V37.5H533.75C534.164 37.5 534.5 37.1643 534.5 36.7501V30.0001H536.439L535.47 30.9698C535.177 31.2627 535.177 31.7376 535.47 32.0304C535.763 32.3233 536.238 32.3233 536.53 32.0304L538.78 29.7805C538.781 29.7803 538.781 29.7802 538.781 29.78C538.798 29.7626 538.815 29.7444 538.83 29.7255ZM528.5 37.3351L522.5 36.1352V22.7582L528.5 24.5582V36.75V37.3351ZM533 36H530V24.0001C530 23.6689 529.783 23.3769 529.466 23.2818L526.86 22.5001H533V36H533Z" fill="#3077C2" fill-opacity="0.8"/>
<path d="M527.056 31.5587L525.891 31.2675C525.579 31.1894 525.263 31.3792 525.185 31.6912C525.107 32.0033 525.296 32.3195 525.608 32.3975L526.773 32.6888C527.085 32.7668 527.402 32.577 527.48 32.265C527.558 31.9529 527.368 31.6367 527.056 31.5587Z" fill="#3077C2" fill-opacity="0.8"/>
<path d="M560 56.1804C560 56.412 559.811 56.6014 559.579 56.6014H540.421C540.189 56.6014 540 56.4119 540 56.1804V43.8197C540 43.5882 540.189 43.3987 540.421 43.3987H559.579C559.811 43.3987 560 43.5882 560 43.8197V56.1804Z" fill="#FFF7EE"/>
<path d="M559.579 43.3985H548.179V44.6684H560V43.8195C560 43.588 559.81 43.3985 559.579 43.3985Z" fill="#E02424"/>
<path d="M548.179 48.1715V48.9638C548.179 49.2265 547.965 49.4414 547.704 49.4414H560V48.1715H548.179V48.1715Z" fill="#E02424"/>
<path d="M560 50.5583H540V51.8281H560V50.5583Z" fill="#E02424"/>
<path opacity="0.1" d="M541.284 50.5584H540V51.8282H541.284V50.5584Z" fill="#666666"/>
<path d="M560 52.9449H540V54.2147H560V52.9449Z" fill="#E02424"/>
<path d="M560 56.1802V55.3315H540V56.1802C540 56.4118 540.189 56.6013 540.421 56.6013H559.579C559.81 56.6013 560 56.4118 560 56.1802Z" fill="#E02424"/>
<path d="M560 45.7854H548.178V47.0552H560V45.7854Z" fill="#E02424"/>
<path d="M540.421 43.3985C540.189 43.3985 540 43.588 540 43.8195V49.4415H548.153C548.414 49.4415 548.628 49.2266 548.628 48.9639V43.3985H540.421Z" fill="#0853A4"/>
<path opacity="0.1" d="M541.747 43.3985H540.421C540.189 43.3985 540 43.588 540 43.8195V49.4415H541.326V43.8195C541.326 43.588 541.516 43.3985 541.747 43.3985Z" fill="#666666"/>
<path d="M541.864 45.0818C541.854 45.0818 541.845 45.0796 541.836 45.0747L541.721 45.0129L541.606 45.0747C541.597 45.0795 541.588 45.0818 541.578 45.0818C541.566 45.0818 541.553 45.0779 541.543 45.07C541.524 45.0562 541.515 45.0328 541.519 45.0097L541.541 44.8787L541.448 44.786C541.431 44.7695 541.426 44.745 541.433 44.7226C541.44 44.7003 541.459 44.684 541.481 44.6806L541.61 44.6615L541.667 44.5423C541.677 44.5212 541.698 44.5079 541.721 44.5079C541.744 44.5079 541.765 44.5212 541.775 44.5423L541.833 44.6615L541.961 44.6806C541.984 44.684 542.002 44.7003 542.01 44.7226C542.017 44.745 542.011 44.7695 541.994 44.786L541.901 44.8787L541.923 45.0097C541.927 45.0328 541.918 45.0562 541.899 45.07C541.889 45.0778 541.876 45.0818 541.864 45.0818Z" fill="white"/>
<path d="M541.864 46.1527C541.854 46.1527 541.845 46.1506 541.836 46.1457L541.721 46.0838L541.606 46.1457C541.597 46.1505 541.588 46.1527 541.578 46.1527C541.566 46.1527 541.553 46.1488 541.543 46.141C541.524 46.1272 541.515 46.1038 541.519 46.0806L541.541 45.9496L541.448 45.8569C541.431 45.8406 541.426 45.8159 541.433 45.7936C541.44 45.7713 541.459 45.755 541.481 45.7515L541.61 45.7325L541.667 45.6133C541.677 45.5922 541.698 45.5789 541.721 45.5789C541.744 45.5789 541.765 45.5922 541.775 45.6133L541.833 45.7325L541.961 45.7515C541.984 45.755 542.002 45.7713 542.01 45.7936C542.017 45.8159 542.011 45.8406 541.994 45.8569L541.901 45.9496L541.923 46.0806C541.927 46.1038 541.918 46.1272 541.899 46.141C541.889 46.1489 541.876 46.1527 541.864 46.1527Z" fill="white"/>
<path d="M541.864 47.2238C541.854 47.2238 541.845 47.2214 541.836 47.2167L541.721 47.1549L541.606 47.2167C541.597 47.2215 541.588 47.2238 541.578 47.2238C541.566 47.2238 541.553 47.2198 541.543 47.212C541.524 47.1982 541.515 47.1748 541.519 47.1517L541.541 47.0207L541.448 46.928C541.431 46.9115 541.426 46.8869 541.433 46.8646C541.44 46.8423 541.459 46.8259 541.481 46.8225L541.61 46.8035L541.667 46.6843C541.677 46.6633 541.698 46.65 541.721 46.65C541.744 46.65 541.765 46.6633 541.775 46.6843L541.833 46.8035L541.961 46.8225C541.984 46.826 542.002 46.8423 542.01 46.8646C542.017 46.8869 542.011 46.9115 541.994 46.928L541.901 47.0207L541.923 47.1517C541.927 47.1748 541.918 47.1982 541.899 47.212C541.889 47.2198 541.876 47.2238 541.864 47.2238Z" fill="white"/>
<path d="M541.864 48.2949C541.854 48.2949 541.845 48.2926 541.836 48.2878L541.721 48.226L541.606 48.2878C541.597 48.2926 541.588 48.2949 541.578 48.2949C541.566 48.2949 541.553 48.291 541.543 48.2831C541.524 48.2693 541.515 48.2459 541.519 48.2228L541.541 48.0918L541.448 47.9991C541.431 47.9827 541.426 47.9581 541.433 47.9357C541.44 47.9134 541.459 47.8971 541.481 47.8937L541.61 47.8746L541.667 47.7554C541.677 47.7344 541.698 47.721 541.721 47.721C541.744 47.721 541.765 47.7344 541.775 47.7554L541.833 47.8746L541.961 47.8937C541.984 47.8971 542.002 47.9134 542.01 47.9357C542.017 47.9581 542.011 47.9827 541.994 47.9991L541.901 48.0918L541.923 48.2228C541.927 48.2459 541.918 48.2693 541.899 48.2831C541.889 48.291 541.876 48.2949 541.864 48.2949Z" fill="white"/>
<path d="M541.185 44.5461C541.176 44.5461 541.166 44.5439 541.157 44.539L541.043 44.4772L540.928 44.539C540.919 44.5438 540.909 44.5461 540.9 44.5461C540.887 44.5461 540.875 44.5421 540.864 44.5343C540.846 44.5205 540.836 44.4971 540.84 44.4739L540.862 44.3429L540.769 44.2502C540.753 44.2338 540.747 44.2092 540.754 44.1869C540.761 44.1645 540.78 44.1482 540.803 44.1448L540.931 44.1257L540.989 44.0065C540.999 43.9855 541.02 43.9721 541.043 43.9721C541.066 43.9721 541.086 43.9855 541.097 44.0065L541.154 44.1257L541.282 44.1448C541.305 44.1482 541.324 44.1645 541.331 44.1869C541.338 44.2092 541.332 44.2338 541.316 44.2502L541.223 44.3429L541.245 44.4739C541.249 44.4971 541.239 44.5205 541.221 44.5343C541.21 44.5421 541.198 44.5461 541.185 44.5461Z" fill="white"/>
<path d="M541.185 45.6171C541.176 45.6171 541.166 45.6147 541.157 45.61L541.043 45.5482L540.928 45.61C540.919 45.6148 540.909 45.6171 540.9 45.6171C540.887 45.6171 540.875 45.6131 540.864 45.6053C540.846 45.5915 540.836 45.5681 540.84 45.545L540.862 45.414L540.769 45.3212C540.753 45.3048 540.747 45.2803 540.754 45.2579C540.761 45.2355 540.78 45.2193 540.803 45.2159L540.931 45.1968L540.989 45.0776C540.999 45.0565 541.02 45.0432 541.043 45.0432C541.066 45.0432 541.086 45.0566 541.097 45.0776L541.154 45.1968L541.282 45.2159C541.305 45.2193 541.324 45.2356 541.331 45.2579C541.338 45.2803 541.332 45.3048 541.316 45.3212L541.223 45.414L541.245 45.545C541.249 45.5681 541.239 45.5915 541.221 45.6053C541.21 45.6131 541.198 45.6171 541.185 45.6171Z" fill="white"/>
<path d="M541.185 46.6883C541.176 46.6883 541.166 46.686 541.157 46.6812L541.043 46.6194L540.928 46.6812C540.919 46.686 540.909 46.6883 540.9 46.6883C540.887 46.6883 540.875 46.6843 540.864 46.6765C540.846 46.6627 540.836 46.6393 540.84 46.6161L540.862 46.4852L540.769 46.3924C540.753 46.376 540.747 46.3514 540.754 46.3291C540.761 46.3067 540.78 46.2904 540.803 46.2871L540.931 46.268L540.989 46.1487C540.999 46.1277 541.02 46.1144 541.043 46.1144C541.066 46.1144 541.086 46.1277 541.097 46.1487L541.154 46.268L541.282 46.2871C541.305 46.2905 541.324 46.3068 541.331 46.3291C541.338 46.3514 541.332 46.376 541.316 46.3924L541.223 46.4852L541.245 46.6161C541.249 46.6393 541.239 46.6627 541.221 46.6765C541.21 46.6843 541.198 46.6883 541.185 46.6883Z" fill="white"/>
<path d="M541.185 47.7594C541.176 47.7594 541.166 47.7572 541.157 47.7523L541.043 47.6905L540.928 47.7523C540.919 47.7571 540.909 47.7594 540.9 47.7594C540.887 47.7594 540.875 47.7555 540.864 47.7476C540.846 47.7338 540.836 47.7104 540.84 47.6873L540.862 47.5563L540.769 47.4636C540.753 47.4472 540.747 47.4226 540.754 47.4002C540.761 47.3778 540.78 47.3616 540.803 47.3582L540.931 47.3392L540.989 47.2199C540.999 47.1989 541.02 47.1855 541.043 47.1855C541.066 47.1855 541.086 47.1989 541.097 47.2199L541.154 47.3392L541.282 47.3582C541.305 47.3616 541.324 47.3779 541.331 47.4002C541.338 47.4226 541.332 47.4472 541.316 47.4636L541.223 47.5563L541.245 47.6873C541.249 47.7104 541.239 47.7338 541.221 47.7476C541.21 47.7555 541.198 47.7594 541.185 47.7594Z" fill="white"/>
<path d="M541.185 48.8304C541.176 48.8304 541.166 48.8281 541.157 48.8233L541.043 48.7615L540.928 48.8233C540.919 48.8281 540.909 48.8304 540.9 48.8304C540.887 48.8304 540.875 48.8265 540.864 48.8186C540.846 48.8049 540.836 48.7814 540.84 48.7582L540.862 48.6273L540.769 48.5346C540.753 48.5182 540.747 48.4936 540.754 48.4712C540.761 48.4488 540.78 48.4325 540.803 48.4291L540.931 48.4101L540.989 48.2909C540.999 48.2699 541.02 48.2565 541.043 48.2565C541.066 48.2565 541.086 48.2699 541.097 48.2909L541.154 48.4101L541.282 48.4291C541.305 48.4325 541.324 48.4488 541.331 48.4712C541.338 48.4936 541.332 48.5182 541.316 48.5346L541.223 48.6273L541.245 48.7582C541.249 48.7814 541.239 48.8049 541.221 48.8186C541.21 48.8265 541.198 48.8304 541.185 48.8304Z" fill="white"/>
<path d="M543.181 45.0818C543.171 45.0818 543.162 45.0796 543.153 45.0747L543.038 45.0129L542.923 45.0747C542.914 45.0795 542.905 45.0818 542.895 45.0818C542.883 45.0818 542.87 45.0779 542.86 45.07C542.841 45.0562 542.832 45.0328 542.836 45.0097L542.858 44.8787L542.765 44.786C542.748 44.7695 542.742 44.745 542.75 44.7226C542.757 44.7003 542.776 44.684 542.798 44.6806L542.927 44.6615L542.984 44.5423C542.994 44.5212 543.015 44.5079 543.038 44.5079C543.061 44.5079 543.082 44.5212 543.092 44.5423L543.15 44.6615L543.278 44.6806C543.301 44.684 543.319 44.7003 543.327 44.7226C543.334 44.745 543.328 44.7695 543.311 44.786L543.218 44.8787L543.24 45.0097C543.244 45.0328 543.235 45.0562 543.216 45.07C543.206 45.0778 543.193 45.0818 543.181 45.0818Z" fill="white"/>
<path d="M543.181 46.1527C543.171 46.1527 543.162 46.1506 543.153 46.1457L543.038 46.0838L542.923 46.1457C542.914 46.1505 542.905 46.1527 542.895 46.1527C542.883 46.1527 542.87 46.1488 542.86 46.141C542.841 46.1272 542.832 46.1038 542.836 46.0806L542.858 45.9496L542.765 45.8569C542.748 45.8406 542.742 45.8159 542.75 45.7936C542.757 45.7713 542.776 45.755 542.798 45.7515L542.927 45.7325L542.984 45.6133C542.994 45.5922 543.015 45.5789 543.038 45.5789C543.061 45.5789 543.082 45.5922 543.092 45.6133L543.15 45.7325L543.278 45.7515C543.301 45.755 543.319 45.7713 543.327 45.7936C543.334 45.8159 543.328 45.8406 543.311 45.8569L543.218 45.9496L543.24 46.0806C543.244 46.1038 543.235 46.1272 543.216 46.141C543.206 46.1489 543.193 46.1527 543.181 46.1527Z" fill="white"/>
<path d="M543.181 47.2238C543.171 47.2238 543.162 47.2214 543.153 47.2167L543.038 47.1549L542.923 47.2167C542.914 47.2215 542.905 47.2238 542.895 47.2238C542.883 47.2238 542.87 47.2198 542.86 47.212C542.841 47.1982 542.832 47.1748 542.836 47.1517L542.858 47.0207L542.765 46.928C542.748 46.9115 542.742 46.8869 542.75 46.8646C542.757 46.8423 542.776 46.8259 542.798 46.8225L542.927 46.8035L542.984 46.6843C542.994 46.6633 543.015 46.65 543.038 46.65C543.061 46.65 543.082 46.6633 543.092 46.6843L543.15 46.8035L543.278 46.8225C543.301 46.826 543.319 46.8423 543.327 46.8646C543.334 46.8869 543.328 46.9115 543.311 46.928L543.218 47.0207L543.24 47.1517C543.244 47.1748 543.235 47.1982 543.216 47.212C543.206 47.2198 543.193 47.2238 543.181 47.2238Z" fill="white"/>
<path d="M543.181 48.2949C543.171 48.2949 543.162 48.2926 543.153 48.2878L543.038 48.226L542.923 48.2878C542.914 48.2926 542.905 48.2949 542.895 48.2949C542.883 48.2949 542.87 48.291 542.86 48.2831C542.841 48.2693 542.832 48.2459 542.836 48.2228L542.858 48.0918L542.765 47.9991C542.748 47.9827 542.742 47.9581 542.75 47.9357C542.757 47.9134 542.776 47.8971 542.798 47.8937L542.927 47.8746L542.984 47.7554C542.994 47.7344 543.015 47.721 543.038 47.721C543.061 47.721 543.082 47.7344 543.092 47.7554L543.15 47.8746L543.278 47.8937C543.301 47.8971 543.319 47.9134 543.327 47.9357C543.334 47.9581 543.328 47.9827 543.311 47.9991L543.218 48.0918L543.24 48.2228C543.244 48.2459 543.235 48.2693 543.216 48.2831C543.206 48.291 543.193 48.2949 543.181 48.2949Z" fill="white"/>
<path d="M542.502 44.5461C542.493 44.5461 542.483 44.5439 542.474 44.539L542.36 44.4772L542.245 44.539C542.236 44.5438 542.226 44.5461 542.217 44.5461C542.204 44.5461 542.192 44.5421 542.181 44.5343C542.163 44.5205 542.153 44.4971 542.157 44.4739L542.179 44.3429L542.086 44.2502C542.07 44.2338 542.064 44.2092 542.071 44.1869C542.078 44.1645 542.097 44.1482 542.12 44.1448L542.248 44.1257L542.306 44.0065C542.316 43.9855 542.337 43.9721 542.36 43.9721C542.383 43.9721 542.404 43.9855 542.414 44.0065L542.471 44.1257L542.599 44.1448C542.622 44.1482 542.641 44.1645 542.648 44.1869C542.655 44.2092 542.649 44.2338 542.633 44.2502L542.54 44.3429L542.562 44.4739C542.566 44.4971 542.556 44.5205 542.538 44.5343C542.527 44.5421 542.515 44.5461 542.502 44.5461Z" fill="white"/>
<path d="M542.502 45.6171C542.493 45.6171 542.483 45.6147 542.474 45.61L542.36 45.5482L542.245 45.61C542.236 45.6148 542.226 45.6171 542.217 45.6171C542.204 45.6171 542.192 45.6131 542.181 45.6053C542.163 45.5915 542.153 45.5681 542.157 45.545L542.179 45.414L542.086 45.3212C542.07 45.3048 542.064 45.2803 542.071 45.2579C542.078 45.2355 542.097 45.2193 542.12 45.2159L542.248 45.1968L542.306 45.0776C542.316 45.0565 542.337 45.0432 542.36 45.0432C542.383 45.0432 542.404 45.0566 542.414 45.0776L542.471 45.1968L542.599 45.2159C542.622 45.2193 542.641 45.2356 542.648 45.2579C542.655 45.2803 542.649 45.3048 542.633 45.3212L542.54 45.414L542.562 45.545C542.566 45.5681 542.556 45.5915 542.538 45.6053C542.527 45.6131 542.515 45.6171 542.502 45.6171Z" fill="white"/>
<path d="M542.502 46.6883C542.493 46.6883 542.483 46.686 542.474 46.6812L542.36 46.6194L542.245 46.6812C542.236 46.686 542.226 46.6883 542.217 46.6883C542.204 46.6883 542.192 46.6843 542.181 46.6765C542.163 46.6627 542.153 46.6393 542.157 46.6161L542.179 46.4852L542.086 46.3924C542.07 46.376 542.064 46.3514 542.071 46.3291C542.078 46.3067 542.097 46.2904 542.12 46.2871L542.248 46.268L542.306 46.1487C542.316 46.1277 542.337 46.1144 542.36 46.1144C542.383 46.1144 542.404 46.1277 542.414 46.1487L542.471 46.268L542.599 46.2871C542.622 46.2905 542.641 46.3068 542.648 46.3291C542.655 46.3514 542.649 46.376 542.633 46.3924L542.54 46.4852L542.562 46.6161C542.566 46.6393 542.556 46.6627 542.538 46.6765C542.527 46.6843 542.515 46.6883 542.502 46.6883Z" fill="white"/>
<path d="M542.502 47.7594C542.493 47.7594 542.483 47.7572 542.474 47.7523L542.36 47.6905L542.245 47.7523C542.236 47.7571 542.226 47.7594 542.217 47.7594C542.204 47.7594 542.192 47.7555 542.181 47.7476C542.163 47.7338 542.153 47.7104 542.157 47.6873L542.179 47.5563L542.086 47.4636C542.07 47.4472 542.064 47.4226 542.071 47.4002C542.078 47.3778 542.097 47.3616 542.12 47.3582L542.248 47.3392L542.306 47.2199C542.316 47.1989 542.337 47.1855 542.36 47.1855C542.383 47.1855 542.404 47.1989 542.414 47.2199L542.471 47.3392L542.599 47.3582C542.622 47.3616 542.641 47.3779 542.648 47.4002C542.655 47.4226 542.649 47.4472 542.633 47.4636L542.54 47.5563L542.562 47.6873C542.566 47.7104 542.556 47.7338 542.538 47.7476C542.527 47.7555 542.515 47.7594 542.502 47.7594Z" fill="white"/>
<path d="M542.502 48.8304C542.493 48.8304 542.483 48.8281 542.474 48.8233L542.36 48.7615L542.245 48.8233C542.236 48.8281 542.226 48.8304 542.217 48.8304C542.204 48.8304 542.192 48.8265 542.181 48.8186C542.163 48.8049 542.153 48.7814 542.157 48.7582L542.179 48.6273L542.086 48.5346C542.07 48.5182 542.064 48.4936 542.071 48.4712C542.078 48.4488 542.097 48.4325 542.12 48.4291L542.248 48.4101L542.306 48.2909C542.316 48.2699 542.337 48.2565 542.36 48.2565C542.383 48.2565 542.404 48.2699 542.414 48.2909L542.471 48.4101L542.599 48.4291C542.622 48.4325 542.641 48.4488 542.648 48.4712C542.655 48.4936 542.649 48.5182 542.633 48.5346L542.54 48.6273L542.562 48.7582C542.566 48.7814 542.556 48.8049 542.538 48.8186C542.527 48.8265 542.515 48.8304 542.502 48.8304Z" fill="white"/>
<path d="M544.498 45.0818C544.488 45.0818 544.479 45.0796 544.47 45.0747L544.355 45.0129L544.24 45.0747C544.231 45.0795 544.222 45.0818 544.212 45.0818C544.2 45.0818 544.187 45.0779 544.177 45.07C544.158 45.0562 544.149 45.0328 544.153 45.0097L544.175 44.8787L544.082 44.786C544.065 44.7695 544.06 44.745 544.067 44.7226C544.074 44.7003 544.092 44.684 544.115 44.6806L544.244 44.6615L544.301 44.5423C544.311 44.5212 544.332 44.5079 544.355 44.5079C544.378 44.5079 544.399 44.5212 544.409 44.5423L544.467 44.6615L544.595 44.6806C544.618 44.684 544.636 44.7003 544.644 44.7226C544.651 44.745 544.645 44.7695 544.628 44.786L544.535 44.8787L544.557 45.0097C544.561 45.0328 544.552 45.0562 544.533 45.07C544.523 45.0778 544.51 45.0818 544.498 45.0818Z" fill="white"/>
<path d="M544.498 46.1527C544.488 46.1527 544.479 46.1506 544.47 46.1457L544.355 46.0838L544.24 46.1457C544.231 46.1505 544.222 46.1527 544.212 46.1527C544.2 46.1527 544.187 46.1488 544.177 46.141C544.158 46.1272 544.149 46.1038 544.153 46.0806L544.175 45.9496L544.082 45.8569C544.065 45.8406 544.06 45.8159 544.067 45.7936C544.074 45.7713 544.092 45.755 544.115 45.7515L544.244 45.7325L544.301 45.6133C544.311 45.5922 544.332 45.5789 544.355 45.5789C544.378 45.5789 544.399 45.5922 544.409 45.6133L544.467 45.7325L544.595 45.7515C544.618 45.755 544.636 45.7713 544.644 45.7936C544.651 45.8159 544.645 45.8406 544.628 45.8569L544.535 45.9496L544.557 46.0806C544.561 46.1038 544.552 46.1272 544.533 46.141C544.523 46.1489 544.51 46.1527 544.498 46.1527Z" fill="white"/>
<path d="M544.498 47.2238C544.488 47.2238 544.479 47.2214 544.47 47.2167L544.355 47.1549L544.24 47.2167C544.231 47.2215 544.222 47.2238 544.212 47.2238C544.2 47.2238 544.187 47.2198 544.177 47.212C544.158 47.1982 544.149 47.1748 544.153 47.1517L544.175 47.0207L544.082 46.928C544.065 46.9115 544.06 46.8869 544.067 46.8646C544.074 46.8423 544.092 46.8259 544.115 46.8225L544.244 46.8035L544.301 46.6843C544.311 46.6633 544.332 46.65 544.355 46.65C544.378 46.65 544.399 46.6633 544.409 46.6843L544.467 46.8035L544.595 46.8225C544.618 46.826 544.636 46.8423 544.644 46.8646C544.651 46.8869 544.645 46.9115 544.628 46.928L544.535 47.0207L544.557 47.1517C544.561 47.1748 544.552 47.1982 544.533 47.212C544.523 47.2198 544.51 47.2238 544.498 47.2238Z" fill="white"/>
<path d="M544.498 48.2949C544.488 48.2949 544.479 48.2926 544.47 48.2878L544.355 48.226L544.24 48.2878C544.231 48.2926 544.222 48.2949 544.212 48.2949C544.2 48.2949 544.187 48.291 544.177 48.2831C544.158 48.2693 544.149 48.2459 544.153 48.2228L544.175 48.0918L544.082 47.9991C544.065 47.9827 544.06 47.9581 544.067 47.9357C544.074 47.9134 544.092 47.8971 544.115 47.8937L544.244 47.8746L544.301 47.7554C544.311 47.7344 544.332 47.721 544.355 47.721C544.378 47.721 544.399 47.7344 544.409 47.7554L544.467 47.8746L544.595 47.8937C544.618 47.8971 544.636 47.9134 544.644 47.9357C544.651 47.9581 544.645 47.9827 544.628 47.9991L544.535 48.0918L544.557 48.2228C544.561 48.2459 544.552 48.2693 544.533 48.2831C544.523 48.291 544.51 48.2949 544.498 48.2949Z" fill="white"/>
<path d="M543.819 44.5461C543.81 44.5461 543.8 44.5439 543.791 44.539L543.677 44.4772L543.562 44.539C543.553 44.5438 543.543 44.5461 543.534 44.5461C543.521 44.5461 543.509 44.5421 543.498 44.5343C543.48 44.5205 543.47 44.4971 543.474 44.4739L543.496 44.3429L543.403 44.2502C543.387 44.2338 543.381 44.2092 543.388 44.1869C543.395 44.1645 543.414 44.1482 543.437 44.1448L543.565 44.1257L543.623 44.0065C543.633 43.9855 543.654 43.9721 543.677 43.9721C543.7 43.9721 543.721 43.9855 543.731 44.0065L543.788 44.1257L543.916 44.1448C543.939 44.1482 543.958 44.1645 543.965 44.1869C543.972 44.2092 543.966 44.2338 543.95 44.2502L543.857 44.3429L543.879 44.4739C543.883 44.4971 543.873 44.5205 543.855 44.5343C543.844 44.5421 543.832 44.5461 543.819 44.5461Z" fill="white"/>
<path d="M543.819 45.6171C543.81 45.6171 543.8 45.6147 543.791 45.61L543.677 45.5482L543.562 45.61C543.553 45.6148 543.543 45.6171 543.534 45.6171C543.521 45.6171 543.509 45.6131 543.498 45.6053C543.48 45.5915 543.47 45.5681 543.474 45.545L543.496 45.414L543.403 45.3212C543.387 45.3048 543.381 45.2803 543.388 45.2579C543.395 45.2355 543.414 45.2193 543.437 45.2159L543.565 45.1968L543.623 45.0776C543.633 45.0565 543.654 45.0432 543.677 45.0432C543.7 45.0432 543.721 45.0566 543.731 45.0776L543.788 45.1968L543.916 45.2159C543.939 45.2193 543.958 45.2356 543.965 45.2579C543.972 45.2803 543.966 45.3048 543.95 45.3212L543.857 45.414L543.879 45.545C543.883 45.5681 543.873 45.5915 543.855 45.6053C543.844 45.6131 543.832 45.6171 543.819 45.6171Z" fill="white"/>
<path d="M543.819 46.6883C543.81 46.6883 543.8 46.686 543.791 46.6812L543.677 46.6194L543.562 46.6812C543.553 46.686 543.543 46.6883 543.534 46.6883C543.521 46.6883 543.509 46.6843 543.498 46.6765C543.48 46.6627 543.47 46.6393 543.474 46.6161L543.496 46.4852L543.403 46.3924C543.387 46.376 543.381 46.3514 543.388 46.3291C543.395 46.3067 543.414 46.2904 543.437 46.2871L543.565 46.268L543.623 46.1487C543.633 46.1277 543.654 46.1144 543.677 46.1144C543.7 46.1144 543.721 46.1277 543.731 46.1487L543.788 46.268L543.916 46.2871C543.939 46.2905 543.958 46.3068 543.965 46.3291C543.972 46.3514 543.966 46.376 543.95 46.3924L543.857 46.4852L543.879 46.6161C543.883 46.6393 543.873 46.6627 543.855 46.6765C543.844 46.6843 543.832 46.6883 543.819 46.6883Z" fill="white"/>
<path d="M543.819 47.7594C543.81 47.7594 543.8 47.7572 543.791 47.7523L543.677 47.6905L543.562 47.7523C543.553 47.7571 543.543 47.7594 543.534 47.7594C543.521 47.7594 543.509 47.7555 543.498 47.7476C543.48 47.7338 543.47 47.7104 543.474 47.6873L543.496 47.5563L543.403 47.4636C543.387 47.4472 543.381 47.4226 543.388 47.4002C543.395 47.3778 543.414 47.3616 543.437 47.3582L543.565 47.3392L543.623 47.2199C543.633 47.1989 543.654 47.1855 543.677 47.1855C543.7 47.1855 543.721 47.1989 543.731 47.2199L543.788 47.3392L543.916 47.3582C543.939 47.3616 543.958 47.3779 543.965 47.4002C543.972 47.4226 543.966 47.4472 543.95 47.4636L543.857 47.5563L543.879 47.6873C543.883 47.7104 543.873 47.7338 543.855 47.7476C543.844 47.7555 543.832 47.7594 543.819 47.7594Z" fill="white"/>
<path d="M543.819 48.8304C543.81 48.8304 543.8 48.8281 543.791 48.8233L543.677 48.7615L543.562 48.8233C543.553 48.8281 543.543 48.8304 543.534 48.8304C543.521 48.8304 543.509 48.8265 543.498 48.8186C543.48 48.8049 543.47 48.7814 543.474 48.7582L543.496 48.6273L543.403 48.5346C543.387 48.5182 543.381 48.4936 543.388 48.4712C543.395 48.4488 543.414 48.4325 543.437 48.4291L543.565 48.4101L543.623 48.2909C543.633 48.2699 543.654 48.2565 543.677 48.2565C543.7 48.2565 543.721 48.2699 543.731 48.2909L543.788 48.4101L543.916 48.4291C543.939 48.4325 543.958 48.4488 543.965 48.4712C543.972 48.4936 543.966 48.5182 543.95 48.5346L543.857 48.6273L543.879 48.7582C543.883 48.7814 543.873 48.8049 543.855 48.8186C543.844 48.8265 543.832 48.8304 543.819 48.8304Z" fill="white"/>
<path d="M545.815 45.0818C545.805 45.0818 545.796 45.0796 545.787 45.0747L545.672 45.0129L545.557 45.0747C545.548 45.0795 545.539 45.0818 545.529 45.0818C545.517 45.0818 545.504 45.0779 545.494 45.07C545.475 45.0562 545.466 45.0328 545.47 45.0097L545.492 44.8787L545.399 44.786C545.382 44.7695 545.376 44.745 545.384 44.7226C545.391 44.7003 545.409 44.684 545.432 44.6806L545.561 44.6615L545.618 44.5423C545.628 44.5212 545.649 44.5079 545.672 44.5079C545.695 44.5079 545.716 44.5212 545.726 44.5423L545.784 44.6615L545.912 44.6806C545.935 44.684 545.953 44.7003 545.96 44.7226C545.968 44.745 545.962 44.7695 545.945 44.786L545.852 44.8787L545.874 45.0097C545.878 45.0328 545.869 45.0562 545.85 45.07C545.84 45.0778 545.827 45.0818 545.815 45.0818Z" fill="white"/>
<path d="M545.815 46.1527C545.805 46.1527 545.796 46.1506 545.787 46.1457L545.672 46.0838L545.557 46.1457C545.548 46.1505 545.539 46.1527 545.529 46.1527C545.517 46.1527 545.504 46.1488 545.494 46.141C545.475 46.1272 545.466 46.1038 545.47 46.0806L545.492 45.9496L545.399 45.8569C545.382 45.8406 545.376 45.8159 545.384 45.7936C545.391 45.7713 545.409 45.755 545.432 45.7515L545.561 45.7325L545.618 45.6133C545.628 45.5922 545.649 45.5789 545.672 45.5789C545.695 45.5789 545.716 45.5922 545.726 45.6133L545.784 45.7325L545.912 45.7515C545.935 45.755 545.953 45.7713 545.96 45.7936C545.968 45.8159 545.962 45.8406 545.945 45.8569L545.852 45.9496L545.874 46.0806C545.878 46.1038 545.869 46.1272 545.85 46.141C545.84 46.1489 545.827 46.1527 545.815 46.1527Z" fill="white"/>
<path d="M545.815 47.2238C545.805 47.2238 545.796 47.2214 545.787 47.2167L545.672 47.1549L545.557 47.2167C545.548 47.2215 545.539 47.2238 545.529 47.2238C545.517 47.2238 545.504 47.2198 545.494 47.212C545.475 47.1982 545.466 47.1748 545.47 47.1517L545.492 47.0207L545.399 46.928C545.382 46.9115 545.376 46.8869 545.384 46.8646C545.391 46.8423 545.409 46.8259 545.432 46.8225L545.561 46.8035L545.618 46.6843C545.628 46.6633 545.649 46.65 545.672 46.65C545.695 46.65 545.716 46.6633 545.726 46.6843L545.784 46.8035L545.912 46.8225C545.935 46.826 545.953 46.8423 545.96 46.8646C545.968 46.8869 545.962 46.9115 545.945 46.928L545.852 47.0207L545.874 47.1517C545.878 47.1748 545.869 47.1982 545.85 47.212C545.84 47.2198 545.827 47.2238 545.815 47.2238Z" fill="white"/>
<path d="M545.815 48.2949C545.805 48.2949 545.796 48.2926 545.787 48.2878L545.672 48.226L545.557 48.2878C545.548 48.2926 545.539 48.2949 545.529 48.2949C545.517 48.2949 545.504 48.291 545.494 48.2831C545.475 48.2693 545.466 48.2459 545.47 48.2228L545.492 48.0918L545.399 47.9991C545.382 47.9827 545.376 47.9581 545.384 47.9357C545.391 47.9134 545.409 47.8971 545.432 47.8937L545.561 47.8746L545.618 47.7554C545.628 47.7344 545.649 47.721 545.672 47.721C545.695 47.721 545.716 47.7344 545.726 47.7554L545.784 47.8746L545.912 47.8937C545.935 47.8971 545.953 47.9134 545.96 47.9357C545.968 47.9581 545.962 47.9827 545.945 47.9991L545.852 48.0918L545.874 48.2228C545.878 48.2459 545.869 48.2693 545.85 48.2831C545.84 48.291 545.827 48.2949 545.815 48.2949Z" fill="white"/>
<path d="M545.136 44.5461C545.127 44.5461 545.117 44.5439 545.108 44.539L544.994 44.4772L544.879 44.539C544.87 44.5438 544.86 44.5461 544.851 44.5461C544.838 44.5461 544.826 44.5421 544.815 44.5343C544.797 44.5205 544.787 44.4971 544.791 44.4739L544.813 44.3429L544.72 44.2502C544.704 44.2338 544.698 44.2092 544.705 44.1869C544.712 44.1645 544.731 44.1482 544.754 44.1448L544.882 44.1257L544.94 44.0065C544.95 43.9855 544.971 43.9721 544.994 43.9721C545.017 43.9721 545.038 43.9855 545.048 44.0065L545.105 44.1257L545.233 44.1448C545.256 44.1482 545.275 44.1645 545.282 44.1869C545.289 44.2092 545.283 44.2338 545.267 44.2502L545.174 44.3429L545.196 44.4739C545.2 44.4971 545.19 44.5205 545.172 44.5343C545.161 44.5421 545.149 44.5461 545.136 44.5461Z" fill="white"/>
<path d="M545.136 45.6171C545.127 45.6171 545.117 45.6147 545.108 45.61L544.994 45.5482L544.879 45.61C544.87 45.6148 544.86 45.6171 544.851 45.6171C544.838 45.6171 544.826 45.6131 544.815 45.6053C544.797 45.5915 544.787 45.5681 544.791 45.545L544.813 45.414L544.72 45.3212C544.704 45.3048 544.698 45.2803 544.705 45.2579C544.712 45.2355 544.731 45.2193 544.754 45.2159L544.882 45.1968L544.94 45.0776C544.95 45.0565 544.971 45.0432 544.994 45.0432C545.017 45.0432 545.038 45.0566 545.048 45.0776L545.105 45.1968L545.233 45.2159C545.256 45.2193 545.275 45.2356 545.282 45.2579C545.289 45.2803 545.283 45.3048 545.267 45.3212L545.174 45.414L545.196 45.545C545.2 45.5681 545.19 45.5915 545.172 45.6053C545.161 45.6131 545.149 45.6171 545.136 45.6171Z" fill="white"/>
<path d="M545.136 46.6883C545.127 46.6883 545.117 46.686 545.108 46.6812L544.994 46.6194L544.879 46.6812C544.87 46.686 544.86 46.6883 544.851 46.6883C544.838 46.6883 544.826 46.6843 544.815 46.6765C544.797 46.6627 544.787 46.6393 544.791 46.6161L544.813 46.4852L544.72 46.3924C544.704 46.376 544.698 46.3514 544.705 46.3291C544.712 46.3067 544.731 46.2904 544.754 46.2871L544.882 46.268L544.94 46.1487C544.95 46.1277 544.971 46.1144 544.994 46.1144C545.017 46.1144 545.038 46.1277 545.048 46.1487L545.105 46.268L545.233 46.2871C545.256 46.2905 545.275 46.3068 545.282 46.3291C545.289 46.3514 545.283 46.376 545.267 46.3924L545.174 46.4852L545.196 46.6161C545.2 46.6393 545.19 46.6627 545.172 46.6765C545.161 46.6843 545.149 46.6883 545.136 46.6883Z" fill="white"/>
<path d="M545.136 47.7594C545.127 47.7594 545.117 47.7572 545.108 47.7523L544.994 47.6905L544.879 47.7523C544.87 47.7571 544.86 47.7594 544.851 47.7594C544.838 47.7594 544.826 47.7555 544.815 47.7476C544.797 47.7338 544.787 47.7104 544.791 47.6873L544.813 47.5563L544.72 47.4636C544.704 47.4472 544.698 47.4226 544.705 47.4002C544.712 47.3778 544.731 47.3616 544.754 47.3582L544.882 47.3392L544.94 47.2199C544.95 47.1989 544.971 47.1855 544.994 47.1855C545.017 47.1855 545.038 47.1989 545.048 47.2199L545.105 47.3392L545.233 47.3582C545.256 47.3616 545.275 47.3779 545.282 47.4002C545.289 47.4226 545.283 47.4472 545.267 47.4636L545.174 47.5563L545.196 47.6873C545.2 47.7104 545.19 47.7338 545.172 47.7476C545.161 47.7555 545.149 47.7594 545.136 47.7594Z" fill="white"/>
<path d="M545.136 48.8304C545.127 48.8304 545.117 48.8281 545.108 48.8233L544.994 48.7615L544.879 48.8233C544.87 48.8281 544.86 48.8304 544.851 48.8304C544.838 48.8304 544.826 48.8265 544.815 48.8186C544.797 48.8049 544.787 48.7814 544.791 48.7582L544.813 48.6273L544.72 48.5346C544.704 48.5182 544.698 48.4936 544.705 48.4712C544.712 48.4488 544.731 48.4325 544.754 48.4291L544.882 48.4101L544.94 48.2909C544.95 48.2699 544.971 48.2565 544.994 48.2565C545.017 48.2565 545.038 48.2699 545.048 48.2909L545.105 48.4101L545.233 48.4291C545.256 48.4325 545.275 48.4488 545.282 48.4712C545.289 48.4936 545.283 48.5182 545.267 48.5346L545.174 48.6273L545.196 48.7582C545.2 48.7814 545.19 48.8049 545.172 48.8186C545.161 48.8265 545.149 48.8304 545.136 48.8304Z" fill="white"/>
<path d="M547.132 45.0818C547.122 45.0818 547.113 45.0796 547.104 45.0747L546.989 45.0129L546.874 45.0747C546.865 45.0795 546.856 45.0818 546.846 45.0818C546.834 45.0818 546.821 45.0779 546.811 45.07C546.792 45.0562 546.783 45.0328 546.787 45.0097L546.809 44.8787L546.716 44.786C546.699 44.7695 546.693 44.745 546.701 44.7226C546.708 44.7003 546.727 44.684 546.749 44.6806L546.878 44.6615L546.935 44.5423C546.945 44.5212 546.966 44.5079 546.989 44.5079C547.012 44.5079 547.033 44.5212 547.043 44.5423L547.101 44.6615L547.229 44.6806C547.252 44.684 547.27 44.7003 547.277 44.7226C547.285 44.745 547.279 44.7695 547.262 44.786L547.169 44.8787L547.191 45.0097C547.195 45.0328 547.186 45.0562 547.167 45.07C547.157 45.0778 547.144 45.0818 547.132 45.0818Z" fill="white"/>
<path d="M547.132 46.1527C547.122 46.1527 547.113 46.1506 547.104 46.1457L546.989 46.0838L546.874 46.1457C546.865 46.1505 546.856 46.1527 546.846 46.1527C546.834 46.1527 546.821 46.1488 546.811 46.141C546.792 46.1272 546.783 46.1038 546.787 46.0806L546.809 45.9496L546.716 45.8569C546.699 45.8406 546.693 45.8159 546.701 45.7936C546.708 45.7713 546.727 45.755 546.749 45.7515L546.878 45.7325L546.935 45.6133C546.945 45.5922 546.966 45.5789 546.989 45.5789C547.012 45.5789 547.033 45.5922 547.043 45.6133L547.101 45.7325L547.229 45.7515C547.252 45.755 547.27 45.7713 547.277 45.7936C547.285 45.8159 547.279 45.8406 547.262 45.8569L547.169 45.9496L547.191 46.0806C547.195 46.1038 547.186 46.1272 547.167 46.141C547.157 46.1489 547.144 46.1527 547.132 46.1527Z" fill="white"/>
<path d="M547.132 47.2238C547.122 47.2238 547.113 47.2214 547.104 47.2167L546.989 47.1549L546.874 47.2167C546.865 47.2215 546.856 47.2238 546.846 47.2238C546.834 47.2238 546.821 47.2198 546.811 47.212C546.792 47.1982 546.783 47.1748 546.787 47.1517L546.809 47.0207L546.716 46.928C546.699 46.9115 546.693 46.8869 546.701 46.8646C546.708 46.8423 546.727 46.8259 546.749 46.8225L546.878 46.8035L546.935 46.6843C546.945 46.6633 546.966 46.65 546.989 46.65C547.012 46.65 547.033 46.6633 547.043 46.6843L547.101 46.8035L547.229 46.8225C547.252 46.826 547.27 46.8423 547.277 46.8646C547.285 46.8869 547.279 46.9115 547.262 46.928L547.169 47.0207L547.191 47.1517C547.195 47.1748 547.186 47.1982 547.167 47.212C547.157 47.2198 547.144 47.2238 547.132 47.2238Z" fill="white"/>
<path d="M547.132 48.2949C547.122 48.2949 547.113 48.2926 547.104 48.2878L546.989 48.226L546.874 48.2878C546.865 48.2926 546.856 48.2949 546.846 48.2949C546.834 48.2949 546.821 48.291 546.811 48.2831C546.792 48.2693 546.783 48.2459 546.787 48.2228L546.809 48.0918L546.716 47.9991C546.699 47.9827 546.693 47.9581 546.701 47.9357C546.708 47.9134 546.727 47.8971 546.749 47.8937L546.878 47.8746L546.935 47.7554C546.945 47.7344 546.966 47.721 546.989 47.721C547.012 47.721 547.033 47.7344 547.043 47.7554L547.101 47.8746L547.229 47.8937C547.252 47.8971 547.27 47.9134 547.277 47.9357C547.285 47.9581 547.279 47.9827 547.262 47.9991L547.169 48.0918L547.191 48.2228C547.195 48.2459 547.186 48.2693 547.167 48.2831C547.157 48.291 547.144 48.2949 547.132 48.2949Z" fill="white"/>
<path d="M546.453 44.5461C546.444 44.5461 546.434 44.5439 546.425 44.539L546.311 44.4772L546.196 44.539C546.187 44.5438 546.177 44.5461 546.168 44.5461C546.155 44.5461 546.143 44.5421 546.132 44.5343C546.114 44.5205 546.104 44.4971 546.108 44.4739L546.13 44.3429L546.037 44.2502C546.021 44.2338 546.015 44.2092 546.022 44.1869C546.029 44.1645 546.048 44.1482 546.071 44.1448L546.199 44.1257L546.257 44.0065C546.267 43.9855 546.288 43.9721 546.311 43.9721C546.334 43.9721 546.355 43.9855 546.365 44.0065L546.422 44.1257L546.55 44.1448C546.573 44.1482 546.592 44.1645 546.599 44.1869C546.606 44.2092 546.6 44.2338 546.584 44.2502L546.491 44.3429L546.513 44.4739C546.517 44.4971 546.507 44.5205 546.489 44.5343C546.478 44.5421 546.466 44.5461 546.453 44.5461Z" fill="white"/>
<path d="M546.453 45.6171C546.444 45.6171 546.434 45.6147 546.425 45.61L546.311 45.5482L546.196 45.61C546.187 45.6148 546.177 45.6171 546.168 45.6171C546.155 45.6171 546.143 45.6131 546.132 45.6053C546.114 45.5915 546.104 45.5681 546.108 45.545L546.13 45.414L546.037 45.3212C546.021 45.3048 546.015 45.2803 546.022 45.2579C546.029 45.2355 546.048 45.2193 546.071 45.2159L546.199 45.1968L546.257 45.0776C546.267 45.0565 546.288 45.0432 546.311 45.0432C546.334 45.0432 546.355 45.0566 546.365 45.0776L546.422 45.1968L546.55 45.2159C546.573 45.2193 546.592 45.2356 546.599 45.2579C546.606 45.2803 546.6 45.3048 546.584 45.3212L546.491 45.414L546.513 45.545C546.517 45.5681 546.507 45.5915 546.489 45.6053C546.478 45.6131 546.466 45.6171 546.453 45.6171Z" fill="white"/>
<path d="M546.453 46.6883C546.444 46.6883 546.434 46.686 546.425 46.6812L546.311 46.6194L546.196 46.6812C546.187 46.686 546.177 46.6883 546.168 46.6883C546.155 46.6883 546.143 46.6843 546.132 46.6765C546.114 46.6627 546.104 46.6393 546.108 46.6161L546.13 46.4852L546.037 46.3924C546.021 46.376 546.015 46.3514 546.022 46.3291C546.029 46.3067 546.048 46.2904 546.071 46.2871L546.199 46.268L546.257 46.1487C546.267 46.1277 546.288 46.1144 546.311 46.1144C546.334 46.1144 546.355 46.1277 546.365 46.1487L546.422 46.268L546.55 46.2871C546.573 46.2905 546.592 46.3068 546.599 46.3291C546.606 46.3514 546.6 46.376 546.584 46.3924L546.491 46.4852L546.513 46.6161C546.517 46.6393 546.507 46.6627 546.489 46.6765C546.478 46.6843 546.466 46.6883 546.453 46.6883Z" fill="white"/>
<path d="M546.453 47.7594C546.444 47.7594 546.434 47.7572 546.425 47.7523L546.311 47.6905L546.196 47.7523C546.187 47.7571 546.177 47.7594 546.168 47.7594C546.155 47.7594 546.143 47.7555 546.132 47.7476C546.114 47.7338 546.104 47.7104 546.108 47.6873L546.13 47.5563L546.037 47.4636C546.021 47.4472 546.015 47.4226 546.022 47.4002C546.029 47.3778 546.048 47.3616 546.071 47.3582L546.199 47.3392L546.257 47.2199C546.267 47.1989 546.288 47.1855 546.311 47.1855C546.334 47.1855 546.355 47.1989 546.365 47.2199L546.422 47.3392L546.55 47.3582C546.573 47.3616 546.592 47.3779 546.599 47.4002C546.606 47.4226 546.6 47.4472 546.584 47.4636L546.491 47.5563L546.513 47.6873C546.517 47.7104 546.507 47.7338 546.489 47.7476C546.478 47.7555 546.466 47.7594 546.453 47.7594Z" fill="white"/>
<path d="M546.453 48.8304C546.444 48.8304 546.434 48.8281 546.425 48.8233L546.311 48.7615L546.196 48.8233C546.187 48.8281 546.177 48.8304 546.168 48.8304C546.155 48.8304 546.143 48.8265 546.132 48.8186C546.114 48.8049 546.104 48.7814 546.108 48.7582L546.13 48.6273L546.037 48.5346C546.021 48.5182 546.015 48.4936 546.022 48.4712C546.029 48.4488 546.048 48.4325 546.071 48.4291L546.199 48.4101L546.257 48.2909C546.267 48.2699 546.288 48.2565 546.311 48.2565C546.334 48.2565 546.355 48.2699 546.365 48.2909L546.422 48.4101L546.55 48.4291C546.573 48.4325 546.592 48.4488 546.599 48.4712C546.606 48.4936 546.6 48.5182 546.584 48.5346L546.491 48.6273L546.513 48.7582C546.517 48.7814 546.507 48.8049 546.489 48.8186C546.478 48.8265 546.466 48.8304 546.453 48.8304Z" fill="white"/>
<path d="M547.771 44.5461C547.761 44.5461 547.751 44.5439 547.742 44.539L547.628 44.4772L547.513 44.539C547.504 44.5438 547.494 44.5461 547.485 44.5461C547.472 44.5461 547.46 44.5421 547.449 44.5343C547.431 44.5205 547.421 44.4971 547.425 44.4739L547.447 44.3429L547.354 44.2502C547.338 44.2338 547.332 44.2092 547.339 44.1869C547.346 44.1645 547.365 44.1482 547.388 44.1448L547.516 44.1257L547.574 44.0065C547.584 43.9855 547.605 43.9721 547.628 43.9721C547.651 43.9721 547.671 43.9855 547.682 44.0065L547.739 44.1257L547.867 44.1448C547.89 44.1482 547.909 44.1645 547.916 44.1869C547.923 44.2092 547.917 44.2338 547.901 44.2502L547.808 44.3429L547.83 44.4739C547.834 44.4971 547.824 44.5205 547.806 44.5343C547.795 44.5421 547.783 44.5461 547.771 44.5461Z" fill="white"/>
<path d="M547.771 45.6171C547.761 45.6171 547.751 45.6147 547.742 45.61L547.628 45.5482L547.513 45.61C547.504 45.6148 547.494 45.6171 547.485 45.6171C547.472 45.6171 547.46 45.6131 547.449 45.6053C547.431 45.5915 547.421 45.5681 547.425 45.545L547.447 45.414L547.354 45.3212C547.338 45.3048 547.332 45.2803 547.339 45.2579C547.346 45.2355 547.365 45.2193 547.388 45.2159L547.516 45.1968L547.574 45.0776C547.584 45.0565 547.605 45.0432 547.628 45.0432C547.651 45.0432 547.671 45.0566 547.682 45.0776L547.739 45.1968L547.867 45.2159C547.89 45.2193 547.909 45.2356 547.916 45.2579C547.923 45.2803 547.917 45.3048 547.901 45.3212L547.808 45.414L547.83 45.545C547.834 45.5681 547.824 45.5915 547.806 45.6053C547.795 45.6131 547.783 45.6171 547.771 45.6171Z" fill="white"/>
<path d="M547.771 46.6883C547.761 46.6883 547.751 46.686 547.742 46.6812L547.628 46.6194L547.513 46.6812C547.504 46.686 547.494 46.6883 547.485 46.6883C547.472 46.6883 547.46 46.6843 547.449 46.6765C547.431 46.6627 547.421 46.6393 547.425 46.6161L547.447 46.4852L547.354 46.3924C547.338 46.376 547.332 46.3514 547.339 46.3291C547.346 46.3067 547.365 46.2904 547.388 46.2871L547.516 46.268L547.574 46.1487C547.584 46.1277 547.605 46.1144 547.628 46.1144C547.651 46.1144 547.671 46.1277 547.682 46.1487L547.739 46.268L547.867 46.2871C547.89 46.2905 547.909 46.3068 547.916 46.3291C547.923 46.3514 547.917 46.376 547.901 46.3924L547.808 46.4852L547.83 46.6161C547.834 46.6393 547.824 46.6627 547.806 46.6765C547.795 46.6843 547.783 46.6883 547.771 46.6883Z" fill="white"/>
<path d="M547.771 47.7594C547.761 47.7594 547.751 47.7572 547.742 47.7523L547.628 47.6905L547.513 47.7523C547.504 47.7571 547.494 47.7594 547.485 47.7594C547.472 47.7594 547.46 47.7555 547.449 47.7476C547.431 47.7338 547.421 47.7104 547.425 47.6873L547.447 47.5563L547.354 47.4636C547.338 47.4472 547.332 47.4226 547.339 47.4002C547.346 47.3778 547.365 47.3616 547.388 47.3582L547.516 47.3392L547.574 47.2199C547.584 47.1989 547.605 47.1855 547.628 47.1855C547.651 47.1855 547.671 47.1989 547.682 47.2199L547.739 47.3392L547.867 47.3582C547.89 47.3616 547.909 47.3779 547.916 47.4002C547.923 47.4226 547.917 47.4472 547.901 47.4636L547.808 47.5563L547.83 47.6873C547.834 47.7104 547.824 47.7338 547.806 47.7476C547.795 47.7555 547.783 47.7594 547.771 47.7594Z" fill="white"/>
<path d="M547.771 48.8304C547.761 48.8304 547.751 48.8281 547.742 48.8233L547.628 48.7615L547.513 48.8233C547.504 48.8281 547.494 48.8304 547.485 48.8304C547.472 48.8304 547.46 48.8265 547.449 48.8186C547.431 48.8049 547.421 48.7814 547.425 48.7582L547.447 48.6273L547.354 48.5346C547.338 48.5182 547.332 48.4936 547.339 48.4712C547.346 48.4488 547.365 48.4325 547.388 48.4291L547.516 48.4101L547.574 48.2909C547.584 48.2699 547.605 48.2565 547.628 48.2565C547.651 48.2565 547.671 48.2699 547.682 48.2909L547.739 48.4101L547.867 48.4291C547.89 48.4325 547.909 48.4488 547.916 48.4712C547.923 48.4936 547.917 48.5182 547.901 48.5346L547.808 48.6273L547.83 48.7582C547.834 48.7814 547.824 48.8049 547.806 48.8186C547.795 48.8265 547.783 48.8304 547.771 48.8304Z" fill="white"/>
<path opacity="0.1" d="M541.284 52.9449H540V54.2147H541.284V52.9449Z" fill="#666666"/>
<path opacity="0.1" d="M541.284 56.1802V55.3315H540V56.1802C540 56.4118 540.189 56.6013 540.421 56.6013H541.705C541.474 56.6013 541.284 56.4118 541.284 56.1802Z" fill="#666666"/>
<path d="M226.175 47.1583L230 50.975L233.825 47.1583L235 48.3333L230.707 52.6262C230.317 53.0167 229.683 53.0167 229.293 52.6262L225 48.3333L226.175 47.1583Z" fill="#3F3F57"/>
<path d="M578.842 15.825L571.275 8.25833C572.05 6.30833 571.65 4.00833 570.075 2.425C568.158 0.50833 565.175 0.33333 563.05 1.88333L566.25 5.09166L565.067 6.26666L561.875 3.075C560.325 5.19166 560.5 8.18333 562.417 10.0917C563.967 11.6417 566.225 12.05 568.158 11.325L575.75 18.9167C576.075 19.2417 576.6 19.2417 576.925 18.9167L578.842 17C579.175 16.6833 579.175 16.1583 578.842 15.825ZM576.342 17.1583L568.458 9.275C567.95 9.65 567.383 9.875 566.792 9.95833C565.658 10.125 564.467 9.78333 563.6 8.91666C562.808 8.13333 562.442 7.08333 562.5 6.05L565.075 8.625L568.608 5.09166L566.033 2.51666C567.067 2.45833 568.108 2.825 568.9 3.60833C569.8 4.50833 570.142 5.75 569.933 6.90833C569.833 7.5 569.583 8.05 569.2 8.54166L577.075 16.4167L576.342 17.1583Z" fill="#3F3F57" fill-opacity="0.8"/>
<path d="M578.842 35.825L571.275 28.2583C572.05 26.3083 571.65 24.0083 570.075 22.425C568.158 20.5083 565.175 20.3333 563.05 21.8833L566.25 25.0917L565.067 26.2667L561.875 23.075C560.325 25.1917 560.5 28.1833 562.417 30.0917C563.967 31.6417 566.225 32.05 568.158 31.325L575.75 38.9167C576.075 39.2417 576.6 39.2417 576.925 38.9167L578.842 37C579.175 36.6833 579.175 36.1583 578.842 35.825ZM576.342 37.1583L568.458 29.275C567.95 29.65 567.383 29.875 566.792 29.9583C565.658 30.125 564.467 29.7833 563.6 28.9167C562.808 28.1333 562.442 27.0833 562.5 26.05L565.075 28.625L568.608 25.0917L566.033 22.5167C567.067 22.4583 568.108 22.825 568.9 23.6083C569.8 24.5083 570.142 25.75 569.933 26.9083C569.833 27.5 569.583 28.05 569.2 28.5417L577.075 36.4167L576.342 37.1583Z" fill="#3077C2"/>
<path d="M597.5 2.5H582.5C581.583 2.5 580.833 3.25 580.833 4.16667V14.1667C580.833 15.0833 581.583 15.8333 582.5 15.8333H586.667V17.5H593.333V15.8333H597.5C598.417 15.8333 599.167 15.0833 599.167 14.1667V4.16667C599.167 3.25 598.417 2.5 597.5 2.5ZM597.5 14.1667H582.5V4.16667H597.5V14.1667ZM595.833 6.66667H586.667V8.33333H595.833V6.66667ZM595.833 10H586.667V11.6667H595.833V10ZM585.833 6.66667H584.167V8.33333H585.833V6.66667ZM585.833 10H584.167V11.6667H585.833V10Z" fill="#3F3F57" fill-opacity="0.8"/>
<path d="M597.5 22.5H582.5C581.583 22.5 580.833 23.25 580.833 24.1667V34.1667C580.833 35.0833 581.583 35.8333 582.5 35.8333H586.667V37.5H593.333V35.8333H597.5C598.417 35.8333 599.167 35.0833 599.167 34.1667V24.1667C599.167 23.25 598.417 22.5 597.5 22.5ZM597.5 34.1667H582.5V24.1667H597.5V34.1667ZM595.833 26.6667H586.667V28.3333H595.833V26.6667ZM595.833 30H586.667V31.6667H595.833V30ZM585.833 26.6667H584.167V28.3333H585.833V26.6667ZM585.833 30H584.167V31.6667H585.833V30Z" fill="#3077C2"/>
<path d="M610 5.83334C605.4 5.83334 601.667 7.70001 601.667 10C601.667 11.8667 604.117 13.4417 607.5 13.975V16.6667L610.833 13.3333L607.5 10V12.275C604.875 11.8083 603.333 10.6917 603.333 10C603.333 9.11668 605.867 7.50001 610 7.50001C614.133 7.50001 616.667 9.11668 616.667 10C616.667 10.6083 615.45 11.575 613.333 12.1083V13.8167C616.275 13.175 618.333 11.7083 618.333 10C618.333 7.70001 614.6 5.83334 610 5.83334Z" fill="#3F3F57" fill-opacity="0.8"/>
<path d="M610 25.8333C605.4 25.8333 601.667 27.7 601.667 30C601.667 31.8667 604.117 33.4417 607.5 33.975V36.6667L610.833 33.3333L607.5 30V32.275C604.875 31.8083 603.333 30.6917 603.333 30C603.333 29.1167 605.867 27.5 610 27.5C614.133 27.5 616.667 29.1167 616.667 30C616.667 30.6083 615.45 31.575 613.333 32.1083V33.8167C616.275 33.175 618.333 31.7083 618.333 30C618.333 27.7 614.6 25.8333 610 25.8333Z" fill="#3077C2"/>
<path d="M623.333 8.75C622.642 8.75 622.083 9.30833 622.083 10C622.083 10.6917 622.642 11.25 623.333 11.25C624.025 11.25 624.583 10.6917 624.583 10C624.583 9.30833 624.025 8.75 623.333 8.75ZM623.333 3.75C622.642 3.75 622.083 4.30833 622.083 5C622.083 5.69167 622.642 6.25 623.333 6.25C624.025 6.25 624.583 5.69167 624.583 5C624.583 4.30833 624.025 3.75 623.333 3.75ZM623.333 13.75C622.642 13.75 622.083 14.3167 622.083 15C622.083 15.6833 622.65 16.25 623.333 16.25C624.017 16.25 624.583 15.6833 624.583 15C624.583 14.3167 624.025 13.75 623.333 13.75ZM625.833 15.8333H637.5V14.1667H625.833V15.8333ZM625.833 10.8333H637.5V9.16667H625.833V10.8333ZM625.833 4.16667V5.83333H637.5V4.16667H625.833Z" fill="#3F3F57" fill-opacity="0.8"/>
<path d="M623.333 28.75C622.642 28.75 622.083 29.3083 622.083 30C622.083 30.6917 622.642 31.25 623.333 31.25C624.025 31.25 624.583 30.6917 624.583 30C624.583 29.3083 624.025 28.75 623.333 28.75ZM623.333 23.75C622.642 23.75 622.083 24.3083 622.083 25C622.083 25.6917 622.642 26.25 623.333 26.25C624.025 26.25 624.583 25.6917 624.583 25C624.583 24.3083 624.025 23.75 623.333 23.75ZM623.333 33.75C622.642 33.75 622.083 34.3167 622.083 35C622.083 35.6833 622.65 36.25 623.333 36.25C624.017 36.25 624.583 35.6833 624.583 35C624.583 34.3167 624.025 33.75 623.333 33.75ZM625.833 35.8333H637.5V34.1667H625.833V35.8333ZM625.833 30.8333H637.5V29.1667H625.833V30.8333ZM625.833 24.1667V25.8333H637.5V24.1667H625.833Z" fill="#3077C2"/>
<path d="M644.617 7.04999L641.667 9.99999L644.617 12.95L646.083 11.475L644.617 9.99999L646.083 8.52499L644.617 7.04999ZM650 15.3833L648.525 13.9167L647.05 15.3833L650 18.3333L652.95 15.3833L651.475 13.9167L650 15.3833ZM655.383 7.04999L653.917 8.52499L655.383 9.99999L653.917 11.475L655.383 12.95L658.333 9.99999L655.383 7.04999ZM647.05 4.61666L648.525 6.08332L650 4.61666L651.475 6.08332L652.95 4.61666L650 1.66666L647.05 4.61666Z" fill="#3F3F57" fill-opacity="0.8"/>
<path d="M650 12.5C651.381 12.5 652.5 11.3807 652.5 10C652.5 8.61929 651.381 7.5 650 7.5C648.619 7.5 647.5 8.61929 647.5 10C647.5 11.3807 648.619 12.5 650 12.5Z" fill="#3F3F57" fill-opacity="0.8"/>
<path d="M644.617 27.05L641.667 30L644.617 32.95L646.083 31.475L644.617 30L646.083 28.525L644.617 27.05ZM650 35.3833L648.525 33.9167L647.05 35.3833L650 38.3333L652.95 35.3833L651.475 33.9167L650 35.3833ZM655.383 27.05L653.917 28.525L655.383 30L653.917 31.475L655.383 32.95L658.333 30L655.383 27.05ZM647.05 24.6167L648.525 26.0833L650 24.6167L651.475 26.0833L652.95 24.6167L650 21.6667L647.05 24.6167Z" fill="#3077C2"/>
<path d="M650 32.5C651.381 32.5 652.5 31.3807 652.5 30C652.5 28.6193 651.381 27.5 650 27.5C648.619 27.5 647.5 28.6193 647.5 30C647.5 31.3807 648.619 32.5 650 32.5Z" fill="#3077C2"/>
<path d="M672.5 15.4167C670.408 15.4167 668.6 14.2333 667.7 12.5H672.5V10.8333H667.15C667.108 10.5583 667.083 10.2833 667.083 10C667.083 9.71667 667.108 9.44167 667.15 9.16667H672.5V7.5H667.7C668.6 5.76667 670.417 4.58333 672.5 4.58333C673.842 4.58333 675.075 5.075 676.025 5.89167L677.5 4.41667C676.175 3.225 674.417 2.5 672.5 2.5C669.233 2.5 666.467 4.59167 665.433 7.5H662.5V9.16667H665.05C665.017 9.44167 665 9.71667 665 10C665 10.2833 665.017 10.5583 665.05 10.8333H662.5V12.5H665.433C666.467 15.4083 669.233 17.5 672.5 17.5C674.425 17.5 676.175 16.775 677.5 15.5833L676.017 14.1083C675.075 14.925 673.85 15.4167 672.5 15.4167Z" fill="#3F3F57" fill-opacity="0.8"/>
<path d="M672.5 35.4167C670.408 35.4167 668.6 34.2333 667.7 32.5H672.5V30.8333H667.15C667.108 30.5583 667.083 30.2833 667.083 30C667.083 29.7167 667.108 29.4417 667.15 29.1667H672.5V27.5H667.7C668.6 25.7667 670.417 24.5833 672.5 24.5833C673.842 24.5833 675.075 25.075 676.025 25.8917L677.5 24.4167C676.175 23.225 674.417 22.5 672.5 22.5C669.233 22.5 666.467 24.5917 665.433 27.5H662.5V29.1667H665.05C665.017 29.4417 665 29.7167 665 30C665 30.2833 665.017 30.5583 665.05 30.8333H662.5V32.5H665.433C666.467 35.4083 669.233 37.5 672.5 37.5C674.425 37.5 676.175 36.775 677.5 35.5833L676.017 34.1083C675.075 34.925 673.85 35.4167 672.5 35.4167Z" fill="#3077C2"/>
</svg>
