<svg width="20" height="20" viewBox="0 0 20 20" fill="none" xmlns="http://www.w3.org/2000/svg">
<path d="M16.6667 6.66667H14.1667V3.33333H2.5C1.58333 3.33333 0.833334 4.08333 0.833334 5V14.1667H2.5C2.5 15.55 3.61667 16.6667 5 16.6667C6.38333 16.6667 7.5 15.55 7.5 14.1667H12.5C12.5 15.55 13.6167 16.6667 15 16.6667C16.3833 16.6667 17.5 15.55 17.5 14.1667H19.1667V10L16.6667 6.66667ZM16.25 7.91667L17.8833 10H14.1667V7.91667H16.25ZM5 15C4.54167 15 4.16667 14.625 4.16667 14.1667C4.16667 13.7083 4.54167 13.3333 5 13.3333C5.45833 13.3333 5.83333 13.7083 5.83333 14.1667C5.83333 14.625 5.45833 15 5 15ZM6.85 12.5C6.39167 11.9917 5.74167 11.6667 5 11.6667C4.25833 11.6667 3.60833 11.9917 3.15 12.5H2.5V5H12.5V12.5H6.85ZM15 15C14.5417 15 14.1667 14.625 14.1667 14.1667C14.1667 13.7083 14.5417 13.3333 15 13.3333C15.4583 13.3333 15.8333 13.7083 15.8333 14.1667C15.8333 14.625 15.4583 15 15 15Z" fill="#666666"/>
</svg>
